<svg xmlns="http://www.w3.org/2000/svg" width="515.916" height="389.749" viewBox="0 0 515.916 389.749">
  <g id="undraw_fall_thyk" transform="translate(0)">
    <path id="Caminho_1" data-name="Caminho 1" d="M606.367,310.93,442.567,375.6l-35.838,14.148-77.519-27.024-66.157-23.062-5.5-1.914-8.052-20.4-32.019-81.1-16.072-40.714L196.58,183.3l-3.5-8.857-7.79-19.733L172.68,122.758l27.552-10.876,26.314-10.391,18.914-7.467L483.61,0Z" transform="translate(-90.451)" fill="#f2f2f2"/>
    <path id="Caminho_2" data-name="Caminho 2" d="M70.166,476.828a7.674,7.674,0,0,1,3.247,15c-4.142.9-15.123-4.577-15.123-4.577S66.024,477.725,70.166,476.828Z" transform="translate(-58.29 -269.086)" fill="#6c63ff"/>
    <path id="Caminho_3" data-name="Caminho 3" d="M83.845,804.83a7.674,7.674,0,0,1,11.794,9.82c-2.712,3.257-14.735,5.7-14.735,5.7S81.134,808.087,83.845,804.83Z" transform="translate(-70.136 -439.54)" fill="#6c63ff"/>
    <path id="Caminho_4" data-name="Caminho 4" d="M681.028,259.075c-12.362-20.888-36.819-21.861-36.819-21.861s-23.832-3.048-39.12,28.765c-14.25,29.652-33.916,58.281-3.166,65.222l5.555-17.288,3.44,18.575a120.314,120.314,0,0,0,13.157.225c32.931-1.063,64.292.311,63.282-11.506C686.014,305.5,692.922,279.173,681.028,259.075Z" transform="translate(-334.519 -143.625)" fill="#2f2e41"/>
    <path id="Caminho_5" data-name="Caminho 5" d="M679.4,366.783c4.26,9.422,6.946,20.654,8.55,33.129l34.2-2.137c-7.862-11.141-10.473-23.929-7.481-38.473Z" transform="translate(-383.633 -207.617)" fill="#ffb8b8"/>
    <path id="Caminho_6" data-name="Caminho 6" d="M679.4,366.783c4.26,9.422,6.946,20.654,8.55,33.129l34.2-2.137c-7.862-11.141-10.473-23.929-7.481-38.473Z" transform="translate(-383.633 -207.617)" opacity="0.2"/>
    <path id="Caminho_7" data-name="Caminho 7" d="M333.812,751.748s-17.7,9.481-8.718,17.575,20.846-10.714,20.846-10.714Z" transform="translate(-196.712 -413.183)" fill="#ffb8b8"/>
    <path id="Caminho_8" data-name="Caminho 8" d="M616.11,628.243l-.276,12.952-.59,27.986-.5,23.743-35.838,14.148L501.39,680.048l5.1-28.319,4.119-22.867,1.838-10.238L605.424,605.8Z" transform="translate(-262.632 -317.323)" fill="#2f2e41"/>
    <path id="Caminho_9" data-name="Caminho 9" d="M684.541,669.007l-.278,12.953c-32.894-.844-83.881-8.785-105.223-12.333l1.838-10.238,92.976-12.824Z" transform="translate(-331.063 -358.088)" fill="#3f3d56"/>
    <circle id="Elipse_1" data-name="Elipse 1" cx="26.717" cy="26.717" r="26.717" transform="translate(285.616 114.816)" fill="#ffb8b8"/>
    <path id="Caminho_10" data-name="Caminho 10" d="M677.319,551.51s3.206,28.855-16.03,26.717l-3.206-28.854-17.1-17.1-48.091-1.069-35.267,33.129s-1.069-34.2,3.206-37.4,13.893-10.687,13.893-10.687V510.9L545.87,452.122s17.1-35.267,30.992-36.336l18.168-1.069s6.412-3.206,6.412-4.275-1.069-9.618,4.275-7.481c0,0,.481-10.965,6.113-7.62,0,0,17.73,13.893,35.726.609,0,0,8.389-1.539,7.32,2.736s0,7.481,2.137,7.481,11.755,3.206,11.755,5.344c0,.459.695,4.884,1.785,11.542v.011c3.965,24.27,13.177,78.217,13.177,78.217S693.349,515.174,677.319,551.51Z" transform="translate(-313.688 -226.163)" fill="#6c63ff"/>
    <path id="Caminho_11" data-name="Caminho 11" d="M438.146,504.056l-7.481,5.343-68.4,87.633-36.335,28.855s20.305-3.206,16.03,13.893L467,568.177Z" transform="translate(-198.484 -283.44)" fill="#6c63ff"/>
    <path id="Caminho_12" data-name="Caminho 12" d="M723.748,422.006v.011c-1.421,8.357-47.738,6.615-54.15,6.615a29.855,29.855,0,0,1-18.168-5.343c-6.412-4.275-3.206-9.618-3.206-9.618s5.459-4.159,5.459-5.227-1.069-9.618,4.275-7.481c0,0,.481-10.965,6.113-7.62,0,0,18.682,14.845,36.679,1.562,0,0,8.389-1.539,7.32,2.736s0,7.481,2.137,7.481,11.755,3.206,11.755,5.343C721.963,410.924,722.658,415.348,723.748,422.006Z" transform="translate(-366.882 -225.115)" fill="#3f3d56"/>
    <path id="Caminho_13" data-name="Caminho 13" d="M774.777,357.428s-8.549-18.168-17.1-9.618,9.618,21.374,9.618,21.374Z" transform="translate(-423.437 -200.399)" fill="#ffb8b8"/>
    <path id="Caminho_14" data-name="Caminho 14" d="M777.086,361.547s-13.2,16.684-17.288,17.96c0,0,11.944,47.23,26.906,60.054l8.549,43.816s36.335-14.962,27.786-39.541l-.255-.733a242.445,242.445,0,0,0-29.292-57.74Z" transform="translate(-425.745 -208.793)" fill="#6c63ff"/>
    <path id="Caminho_15" data-name="Caminho 15" d="M723,424.7l26.291,72.347-9.618-43.816Z" transform="translate(-378.711 -222.46)" opacity="0.2"/>
    <path id="Caminho_16" data-name="Caminho 16" d="M645.313,224.293,621.15,211.637l-33.367,5.178-6.9,30.491,17.185-.661,4.8-11.2V246.46l7.929-.305,4.6-17.834,2.877,18.985,28.189-.575Z" transform="translate(-304.27 -110.857)" fill="#2f2e41"/>
    <path id="Caminho_17" data-name="Caminho 17" d="M303.577,525.888c-16.61-9.259-26.95-21.9-30.733-37.573-2.809-11.636-2-24.73,2.4-38.918a104.232,104.232,0,0,1,14.495-29.278c33.637-47.613,36.673-78.637,33.3-96.28-3.7-19.344-15.729-27.378-15.85-27.457l.519-.8c.124.081,12.468,8.3,16.259,28.038,2.185,11.378,1.157,24.353-3.056,38.563-5.244,17.685-15.469,37.362-30.391,58.484a103.289,103.289,0,0,0-14.363,29.011c-7.218,23.27-8.239,55.237,27.888,75.377Z" transform="translate(-169.817 -174.241)" fill="#2f2e41"/>
    <path id="Caminho_18" data-name="Caminho 18" d="M262.757,504.322c-13.094-7.3-12.73-18.867-10.118-27.286a36.993,36.993,0,0,1,5.145-10.393c11.784-16.68,12.849-27.516,11.667-33.669-1.283-6.681-5.4-9.424-5.442-9.451l.519-.8c.183.119,4.5,2.995,5.858,10.07,1.77,9.213-2.209,20.786-11.825,34.4a36.036,36.036,0,0,0-5.013,10.125c-2.507,8.083-2.864,19.184,9.672,26.173Z" transform="translate(-159.332 -240.838)" fill="#2f2e41"/>
    <path id="Caminho_19" data-name="Caminho 19" d="M390.356,282.323l-.464-.832c12.537-6.989,12.179-18.09,9.672-26.173a36.037,36.037,0,0,0-5.013-10.125c-9.616-13.611-13.594-25.184-11.825-34.4,1.359-7.076,5.675-9.951,5.858-10.07l.52.8c-.042.027-4.18,2.806-5.45,9.489-1.169,6.149-.092,16.976,11.675,33.631a37,37,0,0,1,5.145,10.393C403.086,263.455,403.45,275.023,390.356,282.323Z" transform="translate(-228.018 -124.553)" fill="#2f2e41"/>
    <path id="Caminho_20" data-name="Caminho 20" d="M429.032,240.3A14.286,14.286,0,1,1,405.1,224.689c4.311-6.608,26.015-13.731,26.015-13.731S433.343,233.693,429.032,240.3Z" transform="translate(-238.737 -129.914)" fill="#6c63ff"/>
    <path id="Caminho_21" data-name="Caminho 21" d="M418.032,147.3A14.286,14.286,0,0,1,394.1,131.689c4.311-6.608,26.015-13.731,26.015-13.731S422.343,140.693,418.032,147.3Z" transform="translate(-232.975 -81.2)" fill="#6c63ff"/>
    <path id="Caminho_22" data-name="Caminho 22" d="M382.29,488.084A14.761,14.761,0,0,1,375.918,460c7.191-3.426,28.758,1.589,29.672,1.8l.578.136-.259.535c-.409.846-10.1,20.753-17.295,24.179h0A14.671,14.671,0,0,1,382.29,488.084Zm1.2-28.329a17.842,17.842,0,0,0-7.163,1.1,13.81,13.81,0,1,0,11.878,24.935c6.256-2.98,14.957-19.942,16.581-23.2-2.6-.578-13.3-2.84-21.3-2.84Z" transform="translate(-220.258 -259.736)" fill="#2f2e41"/>
    <path id="Caminho_23" data-name="Caminho 23" d="M305.931,237.606a14.286,14.286,0,0,1-19.251,21.113c-5.83-5.316-9.376-27.882-9.376-27.882S300.1,232.29,305.931,237.606Z" transform="translate(-173.011 -140.326)" fill="#6c63ff"/>
    <path id="Caminho_24" data-name="Caminho 24" d="M235.931,363.606a14.286,14.286,0,0,1-19.251,21.113c-5.83-5.316-9.376-27.882-9.376-27.882S230.1,358.29,235.931,363.606Z" transform="translate(-136.345 -206.326)" fill="#6c63ff"/>
    <path id="Caminho_25" data-name="Caminho 25" d="M329.564,370.876c-4.768,0-13.886-4.515-14.3-4.724l-.532-.265.375-.461c.32-.394,7.888-9.666,12.145-10.588h0a8.15,8.15,0,0,1,3.449,15.931,5.405,5.405,0,0,1-1.132.107Zm-13.337-5.313c2.246,1.072,10.846,5.017,14.268,4.275a7.2,7.2,0,1,0-3.046-14.069c-3.423.741-9.621,7.889-11.222,9.794Z" transform="translate(-192.614 -205.182)" fill="#2f2e41"/>
    <path id="Caminho_26" data-name="Caminho 26" d="M237.433,791.3a7.674,7.674,0,0,1,13.357,7.559c-2.087,3.688-13.481,8.242-13.481,8.242S235.345,794.992,237.433,791.3Z" transform="translate(-151.623 -431.862)" fill="#6c63ff"/>
    <path id="Caminho_27" data-name="Caminho 27" d="M174.708,606.11a70.458,70.458,0,0,1-9.813-.846l-.587-.1.221-.552c.189-.472,4.663-11.572,8.455-13.716h0a8.15,8.15,0,1,1,8.022,14.189C179.645,605.861,177.246,606.11,174.708,606.11Zm-9.064-1.7c2.462.357,11.846,1.57,14.894-.152a7.2,7.2,0,1,0-7.084-12.531h0c-3.048,1.723-6.845,10.389-7.809,12.684Z" transform="translate(-113.824 -328.377)" fill="#2f2e41"/>
  </g>
</svg>
