<svg id="undraw_predictive_analytics_kf9n" xmlns="http://www.w3.org/2000/svg" width="538.681" height="436.687" viewBox="0 0 538.681 436.687">
  <path id="Caminho_42" data-name="Caminho 42" d="M85.544,0,49.924,69.476h7.19v56.655H20.877L0,166.849,258.677,299.473l85.544-166.849Z" fill="#f2f2f2"/>
  <rect id="Retângulo_28" data-name="Retângulo 28" width="397" height="198" transform="translate(77.681 45.687)" fill="#3f3d56"/>
  <rect id="Retângulo_29" data-name="Retângulo 29" width="292.717" height="0.674" transform="translate(133.666 116.688)" fill="#5ca2d5" opacity="0.3"/>
  <rect id="Retângulo_30" data-name="Retângulo 30" width="293" height="1" transform="translate(133.681 133.687)" fill="#5ca2d5" opacity="0.3"/>
  <rect id="Retângulo_31" data-name="Retângulo 31" width="293" transform="translate(133.681 167.687)" fill="#5ca2d5" opacity="0.3"/>
  <rect id="Retângulo_32" data-name="Retângulo 32" width="293" height="1" transform="translate(133.681 181.687)" fill="#5ca2d5" opacity="0.3"/>
  <rect id="Retângulo_33" data-name="Retângulo 33" width="293" transform="translate(133.681 150.687)" fill="#5ca2d5" opacity="0.3"/>
  <ellipse id="Elipse_11" data-name="Elipse 11" cx="125.5" cy="11.5" rx="125.5" ry="11.5" transform="translate(256.681 413.687)" fill="#3f3d56"/>
  <path id="Caminho_43" data-name="Caminho 43" d="M210.273,237.408l-.931-.977L252.913,194.9l38.408,27.627,31.06-34.435L336,199.671l37.048-22.229L414.2,205.1l64.587-36.737.666,1.172L414.14,206.687,373.007,179.04l-37.143,22.286L322.5,189.97l-30.991,34.36-38.481-27.679Z" transform="translate(-68.148 -54.809)" fill="#5ca2d5"/>
  <path id="Caminho_44" data-name="Caminho 44" d="M596.954,711.019c3.17,11.718,14.028,18.975,14.028,18.975s5.718-11.741,2.548-23.459S599.5,687.56,599.5,687.56,593.784,699.3,596.954,711.019Z" transform="translate(-329.356 -309.143)" fill="#3f3d56"/>
  <path id="Caminho_45" data-name="Caminho 45" d="M593.83,714.177c8.7,8.468,9.761,21.484,9.761,21.484s-13.04-.712-21.739-9.18S572.091,705,572.091,705,585.132,705.71,593.83,714.177Z" transform="translate(-321.574 -314.819)" fill="#5ca2d5"/>
  <circle id="Elipse_12" data-name="Elipse 12" cx="22.5" cy="22.5" r="22.5" transform="translate(493.681 13.687)" fill="#5ca2d5" opacity="0.4"/>
  <ellipse id="Elipse_13" data-name="Elipse 13" cx="15.5" cy="16" rx="15.5" ry="16" transform="translate(458.681 30.687)" fill="#5ca2d5" opacity="0.4"/>
  <ellipse id="Elipse_14" data-name="Elipse 14" cx="8" cy="8.5" rx="8" ry="8.5" transform="translate(446.681 328.687)" fill="#5ca2d5" opacity="0.4"/>
  <circle id="Elipse_15" data-name="Elipse 15" cx="6.5" cy="6.5" r="6.5" transform="translate(304.681 374.687)" fill="#5ca2d5" opacity="0.4"/>
  <circle id="Elipse_16" data-name="Elipse 16" cx="8.5" cy="8.5" r="8.5" transform="translate(280.681 287.687)" fill="#5ca2d5" opacity="0.4"/>
  <circle id="Elipse_17" data-name="Elipse 17" cx="8.768" cy="8.768" r="8.768" transform="translate(401.428 108.257)" fill="#5ca2d5"/>
  <path id="Caminho_46" data-name="Caminho 46" d="M720.077,535.116l-7.433.826s-3.3,14.866,0,34.687,7.433,39.642,7.433,39.642,3.3,64.419,4.955,65.245,16.518,5.781,17.344.826.826-118.1.826-118.1l11.562,54.508s1.652,68.548,4.955,68.548,14.04-.826,14.04-6.607,2.478-81.762,2.478-81.762-.826-56.16-4.129-57.812S720.077,535.116,720.077,535.116Z" transform="translate(-366.851 -259.277)" fill="#2f2e41"/>
  <path id="Caminho_47" data-name="Caminho 47" d="M728.693,739.785s-7.433-.826-9.085,0-4.129,6.607,0,9.911,14.866,8.259,18.169,8.259a17.085,17.085,0,0,0,6.607-1.652l-1.652-14.04Z" transform="translate(-368.861 -326.024)" fill="#2f2e41"/>
  <path id="Caminho_48" data-name="Caminho 48" d="M783.149,743.212l.826,11.562s10.736,1.652,11.562,0,9.085-5.781,9.911-6.607,1.652-9.911-3.3-10.737-6.607,1.652-6.607,1.652Z" transform="translate(-390.281 -325.323)" fill="#2f2e41"/>
  <path id="Caminho_49" data-name="Caminho 49" d="M671.817,432.612s-19.821,19-17.343,28.906,22.3,38.816,22.3,38.816,19,9.911,21.473,0-13.214-7.433-13.214-7.433L672.642,463.17l14.04-19.821Z" transform="translate(-348.323 -226.148)" fill="#ffb8b8"/>
  <path id="Caminho_50" data-name="Caminho 50" d="M806.874,358.429s18.056-11.611,17.638-19.589-11.3-33.13-11.3-33.13-8.515-17.7-11.9-10.469,4.449,14.937,4.449,14.937l5.057,24.673-13.743,13.111Z" transform="translate(-394.814 -180.863)" fill="#ffb8b8"/>
  <circle id="Elipse_18" data-name="Elipse 18" cx="14.866" cy="14.866" r="14.866" transform="translate(352.4 131.309)" fill="#ffb8b8"/>
  <path id="Caminho_51" data-name="Caminho 51" d="M734.169,354.173l2.478,15.692,18.169-3.3s-.826-15.692-.826-17.344S734.169,354.173,734.169,354.173Z" transform="translate(-374.336 -198.914)" fill="#ffb8b8"/>
  <path id="Caminho_52" data-name="Caminho 52" d="M722.182,378.2s20.647-4.955,23.125-3.3,14.866,3.3,14.866,3.3l14.04,21.473-4.129,27.254s-.826,43.772.826,51.2,10.736,8.259-8.259,9.911-22.3-.826-35.513,2.478-23.951-1.652-20.647-4.955,9.085-56.16,2.478-61.115-9.085-30.558-9.085-30.558S722.182,382.331,722.182,378.2Z" transform="translate(-363.175 -207.25)" fill="#d0cde1"/>
  <path id="Caminho_53" data-name="Caminho 53" d="M785.6,380.044l2.478-2.478,4.955-4.955s16.1,7.02,15.279,9.5-6.194,16.931-6.194,16.931l-7.433,2.478Z" transform="translate(-391.078 -206.615)" fill="#d0cde1"/>
  <path id="Caminho_54" data-name="Caminho 54" d="M701.423,404.876l-9.911-1.652s-7.433,8.259-9.911,11.562-7.433,11.562-7.433,11.562l17.343,12.388,13.214-14.04Z" transform="translate(-354.804 -216.581)" fill="#d0cde1"/>
  <path id="Caminho_55" data-name="Caminho 55" d="M741.46,314.667l-.152-1.191a9.361,9.361,0,0,0-2.975.468,4.889,4.889,0,0,1,.184-2.14,9.515,9.515,0,0,0-2.754,1.2l-.6-2.173-8.256,4.069c-2.964,1.461-6.088,3.066-7.782,5.9-1.889,3.162-1.56,7.227-.269,10.676s3.437,6.5,5.156,9.76a24.378,24.378,0,0,0,2.343,3.988c3.116,3.885,9.182,4.67,13.576,2.325a7.856,7.856,0,0,0,3.762-3.871,25.172,25.172,0,0,0,.751-3.206c.544-2.22,1.174-6.8,2.978-8.207.793-.618,2.367,1.431,3.024.67,1.69-1.956,1.335-4.972.286-7.334a53.515,53.515,0,0,0-3.523-6.871C746.642,317.844,741.442,314.525,741.46,314.667Z" transform="translate(-369.007 -186.502)" fill="#2f2e41"/>
  <rect id="Retângulo_34" data-name="Retângulo 34" width="43" height="43" transform="translate(8.681 77.687)" fill="#3f3d56"/>
</svg>
