<svg xmlns="http://www.w3.org/2000/svg" xmlns:xlink="http://www.w3.org/1999/xlink" width="294.254" height="245.878" viewBox="0 0 294.254 245.878">
  <defs>
    <linearGradient id="linear-gradient" x1="0.5" y1="1" x2="0.5" gradientUnits="objectBoundingBox">
      <stop offset="0" stop-color="gray" stop-opacity="0.251"/>
      <stop offset="0.54" stop-color="gray" stop-opacity="0.122"/>
      <stop offset="1" stop-color="gray" stop-opacity="0.102"/>
    </linearGradient>
  </defs>
  <g id="undraw_balloons_vxx5" transform="translate(-0.03 0.005)">
    <path id="Caminho_59" data-name="Caminho 59" d="M185.314,217.825c10-8.885,25.657-10.713,39.922-10,44.817,2.226,85.252,23.864,120.236,48.31,12.665,8.859,25.136,18.4,33.357,30.6,16.737,24.83,11.772,59.229-11.5,79.685-7.919,6.958-17.517,12.3-27.356,17.025-17.52,8.408-36.424,15.159-56.31,17.08-14.181,1.371-28.52.259-42.632-1.653-39.387-5.343-78.049-17.17-110.455-37.364-14.211-8.862-27.606-19.883-33.468-34.221s-2.122-32.5,12.392-40.982c6-3.51,13.177-5.093,20.2-6.583,10.343-2.191,20.852-4.365,30.182-8.806,9.639-4.6,21.053-13.5,19.146-23.68C176.976,236.3,175.341,226.71,185.314,217.825Z" transform="translate(-94.43 -155.262)" fill="#5ca2d5" opacity="0.1"/>
    <path id="Caminho_60" data-name="Caminho 60" d="M349.9,797.678s-13.387-.806-11.815,8.579a2.294,2.294,0,0,0,1.19,2.413s.023-.7,1.374-.46a6.368,6.368,0,0,0,1.455.07,3.042,3.042,0,0,0,1.781-.736h0s3.763-1.554,5.238-7.706c0,0,1.086-1.344,1.042-1.688l-2.261.963a4.066,4.066,0,0,1,.166,2.986s-.073-2.91-.509-2.855c-.087,0-1.164.565-1.164.565s1.33,2.84.326,4.9c0,0,.381-3.492-.742-4.7l-1.609.928s1.551,2.936.5,5.329c0,0,.271-3.673-.832-5.1l-1.455,1.126s1.455,2.89.582,4.875c0,0-.116-4.272-.873-4.6a8.884,8.884,0,0,0-1.455,1.569s1,2.1.381,3.2c0,0-.381-2.849-.693-2.861a9.457,9.457,0,0,0-1.388,3.178,6.865,6.865,0,0,1,1.083-3.358,3.774,3.774,0,0,0-1.924,1s.195-1.333,2.235-1.455a8.823,8.823,0,0,1,1.315-1.519,8.264,8.264,0,0,0-3.257.375s1.083-1.257,3.629-.687l1.423-1.164a11.712,11.712,0,0,0-3.8.038s1.3-1.112,4.185-.291l1.548-.925a14.005,14.005,0,0,0-3.632-.314s1.432-.771,4.074.064l1.12-.495s-1.668-.326-2.156-.378-.512-.186-.512-.186a5.777,5.777,0,0,1,3.131.349A13.645,13.645,0,0,0,349.9,797.678Z" transform="translate(-267.065 -573.542)" fill="#5ca2d5"/>
    <ellipse id="Elipse_19" data-name="Elipse 19" cx="9.479" cy="1.604" rx="9.479" ry="1.604" transform="translate(64.142 234.342)" fill="#5ca2d5" opacity="0.1"/>
    <path id="Caminho_61" data-name="Caminho 61" d="M450.914,712.726s-7.552-.457-6.661,4.834a1.292,1.292,0,0,0,.669,1.362s0-.393.774-.259a3.672,3.672,0,0,0,.821.038,1.709,1.709,0,0,0,1-.413h0s2.122-.873,2.948-4.348c0,0,.611-.757.582-.949l-1.275.544a2.291,2.291,0,0,1,.093,1.682s-.044-1.65-.291-1.612c-.049,0-.661.32-.661.32a3.77,3.77,0,0,1,.183,2.765s.215-1.973-.419-2.648l-.9.524a4,4,0,0,1,.291,3s.151-2.072-.471-2.878l-.812.634a3.865,3.865,0,0,1,.32,2.75s-.064-2.41-.5-2.593a4.925,4.925,0,0,0-.818.873s.562,1.182.212,1.807c0,0-.212-1.606-.39-1.612a5.316,5.316,0,0,0-.78,1.79,3.867,3.867,0,0,1,.608-1.895,2.133,2.133,0,0,0-1.083.565s.108-.754,1.257-.821a4.8,4.8,0,0,1,.742-.856,4.7,4.7,0,0,0-1.836.212,2.051,2.051,0,0,1,2.037-.387l.8-.655a6.62,6.62,0,0,0-2.142.02,2.606,2.606,0,0,1,2.357-.169l.873-.524a7.858,7.858,0,0,0-2.037-.175,3.135,3.135,0,0,1,2.3.035l.623-.291s-.94-.186-1.214-.215-.291-.1-.291-.1a3.259,3.259,0,0,1,1.767.2A8.936,8.936,0,0,0,450.914,712.726Z" transform="translate(-342.373 -513.318)" fill="#5ca2d5"/>
    <ellipse id="Elipse_20" data-name="Elipse 20" cx="5.343" cy="0.902" rx="5.343" ry="0.902" transform="translate(97.994 205.164)" fill="#5ca2d5" opacity="0.1"/>
    <path id="Caminho_62" data-name="Caminho 62" d="M294.36,728.491s-9.118-.547-8.044,5.841a1.56,1.56,0,0,0,.809,1.641s.017-.474.937-.314a4.2,4.2,0,0,0,.99.049,2.038,2.038,0,0,0,1.211-.5h0s2.564-1.059,3.559-5.238c0,0,.739-.914.71-1.164l-1.539.658a2.767,2.767,0,0,1,.113,2.037s-.052-1.991-.346-1.944c-.061,0-.8.384-.8.384a4.543,4.543,0,0,1,.221,3.338s.259-2.381-.5-3.2l-1.083.632a4.793,4.793,0,0,1,.341,3.629s.183-2.5-.567-3.475l-.981.765s.992,1.97.387,3.321c0,0-.081-2.91-.6-3.128a5.974,5.974,0,0,0-.989,1.068s.681,1.429.259,2.183c0,0-.259-1.938-.471-1.947a6.4,6.4,0,0,0-.943,2.165,4.656,4.656,0,0,1,.736-2.293,2.558,2.558,0,0,0-1.31.678s.134-.908,1.522-.99a5.9,5.9,0,0,1,.9-1.033,5.656,5.656,0,0,0-2.218.256,2.491,2.491,0,0,1,2.468-.469l.969-.771a7.943,7.943,0,0,0-2.587.026s.888-.76,2.849-.207l1.056-.631a9.646,9.646,0,0,0-2.474-.212,3.8,3.8,0,0,1,2.782.044l.754-.338s-1.135-.224-1.455-.259-.352-.128-.352-.128a3.943,3.943,0,0,1,2.133.239A9.5,9.5,0,0,0,294.36,728.491Z" transform="translate(-230.389 -524.494)" fill="#5ca2d5"/>
    <ellipse id="Elipse_21" data-name="Elipse 21" cx="6.452" cy="1.091" rx="6.452" ry="1.091" transform="translate(51.235 210.947)" fill="#5ca2d5" opacity="0.1"/>
    <path id="Caminho_63" data-name="Caminho 63" d="M563.836,220.81c-2.41.934-5.131,2.206-5.756,4.712a5.765,5.765,0,0,0,.151,2.91,9.6,9.6,0,0,0,4.627,5.751c2.768,1.487,6.2,1.569,8.731,3.419a7.52,7.52,0,0,1,2.934,4.72,12.159,12.159,0,0,0,.439,2.366c.777,2.011,3.222,2.794,5.375,2.91a4.884,4.884,0,0,1,2.963.736,4.271,4.271,0,0,1,.8,1.024c1.676,2.674,3.411,5.529,3.428,8.693a14.422,14.422,0,0,1-2.273,6.985c-1.6,2.8-3.562,5.556-3.929,8.76-.431,3.783,1.455,7.433,1.7,11.225a13.387,13.387,0,0,1-4.482,10.788" transform="translate(-423.042 -164.568)" fill="none" stroke="#444053" stroke-miterlimit="10" stroke-width="1"/>
    <path id="Caminho_64" data-name="Caminho 64" d="M437.2,54.49c1.851,13.48,1.537,30.432-10.567,32.094s-31.41-12.6-33.273-26.076,6.461-25.753,18.564-27.414S435.354,41.012,437.2,54.49Z" transform="translate(-306.162 -31.348)" fill="#5ca2d5"/>
    <path id="Caminho_65" data-name="Caminho 65" d="M520.89,209.821s-1.979.9-2.279-1.03a3.494,3.494,0,0,1-.035-.518,5.176,5.176,0,0,0-.329-1.746,6.316,6.316,0,0,0-.25-.582,8.331,8.331,0,0,0-1.668-2.308l4.656-3.556s-.821,2.869-.038,3.559a.606.606,0,0,0,.413.146,1.164,1.164,0,0,0,.413-.079c.16-.055.306-.1.439-.134,1.574-.4,1.455.6,1.455.6C524.912,206.352,520.89,209.821,520.89,209.821Z" transform="translate(-393.526 -149.871)" fill="#5ca2d5"/>
    <path id="Caminho_66" data-name="Caminho 66" d="M525.438,212.417l-3.108,2.75a6.314,6.314,0,0,0-.25-.582c.841-.617,2.13-1.647,2.945-2.3A.605.605,0,0,0,525.438,212.417Z" transform="translate(-397.603 -158.52)" fill="#444053"/>
    <path id="Caminho_67" data-name="Caminho 67" d="M526.449,218.055s-1.979.9-2.279-1.03a6.517,6.517,0,0,0,2.159-1.315,5.593,5.593,0,0,0,1.438-3.92c1.574-.4,1.455.6,1.455.6C530.471,214.586,526.449,218.055,526.449,218.055Z" transform="translate(-399.085 -158.105)" fill="#5ca2d5"/>
    <path id="Caminho_68" data-name="Caminho 68" d="M526.449,218.055s-1.979.9-2.279-1.03a6.517,6.517,0,0,0,2.159-1.315,5.593,5.593,0,0,0,1.438-3.92c1.574-.4,1.455.6,1.455.6C530.471,214.586,526.449,218.055,526.449,218.055Z" transform="translate(-399.085 -158.105)" opacity="0.1"/>
    <path id="Caminho_69" data-name="Caminho 69" d="M415.862,58.47s-5.867,2.966-5,7.6A5.25,5.25,0,0,1,412.9,64.89a3.344,3.344,0,0,0,1.432-.605A8.7,8.7,0,0,1,415.862,58.47Z" transform="translate(-318.692 -49.472)" fill="#fff" opacity="0.1"/>
    <path id="Caminho_70" data-name="Caminho 70" d="M424.78,290.756a16.821,16.821,0,0,1-1.368,4.578c-.178.407-.373.821-.582,1.228-5.48,10.518-20.709,20.791-32.082,19.248-10.619-1.441-18.82-8.751-21.029-17.7-.108-.437-.2-.873-.291-1.327a20.171,20.171,0,0,1-.122-6.2c1.333-9.79,9.6-17.112,19.865-18.576a24.953,24.953,0,0,1,2.733-.25c.442-.02.891-.026,1.342-.02a26.735,26.735,0,0,1,3.446.244c.632.087,1.278.178,1.924.291a1.579,1.579,0,0,1,.163.026,72.914,72.914,0,0,1,11.591,2.7c1.164.387,2.29.8,3.373,1.272.754.317,1.487.658,2.194,1.019a18,18,0,0,1,7.342,6.146c.157.25.291.5.437.768l.061.122A10.186,10.186,0,0,1,424.8,287.7,11.685,11.685,0,0,1,424.78,290.756Z" transform="translate(-289.16 -200.671)" fill="#5ca2d5"/>
    <path id="Caminho_71" data-name="Caminho 71" d="M424.78,290.756a16.821,16.821,0,0,1-1.368,4.578c-.178.407-.373.821-.582,1.228-5.48,10.518-20.709,20.791-32.082,19.248-10.619-1.441-18.82-8.751-21.029-17.7-.108-.437-.2-.873-.291-1.327a20.171,20.171,0,0,1-.122-6.2c1.333-9.79,9.6-17.112,19.865-18.576a24.953,24.953,0,0,1,2.733-.25c.442-.02.891-.026,1.342-.02a26.735,26.735,0,0,1,3.446.244c.632.087,1.278.178,1.924.291a1.579,1.579,0,0,1,.163.026,72.914,72.914,0,0,1,11.591,2.7c1.164.387,2.29.8,3.373,1.272.754.317,1.487.658,2.194,1.019a18,18,0,0,1,7.342,6.146c.157.25.291.5.437.768l.061.122A10.186,10.186,0,0,1,424.8,287.7,11.685,11.685,0,0,1,424.78,290.756Z" transform="translate(-289.16 -200.671)" opacity="0.1"/>
    <path id="Caminho_72" data-name="Caminho 72" d="M557.88,310.176a2.617,2.617,0,0,1-.509-.1,5.082,5.082,0,0,0-1.775-.148,4.836,4.836,0,0,0-.646.082,7.789,7.789,0,0,0-1.833.565,7.417,7.417,0,0,0-.829.419l-1.5-3.745-.02-.055-.652-1.624a11,11,0,0,0,1.481.742c.716.291,1.51.515,1.932.244a.637.637,0,0,0,.25-.361,1.111,1.111,0,0,0,.035-.422c0-.169-.015-.32-.015-.463.041-1.618.981-1.243.981-1.243,1.08-.265,2.127.53,2.957,1.487.122.146.239.291.346.431a14.372,14.372,0,0,1,1.409,2.276S559.819,310.412,557.88,310.176Z" transform="translate(-417.476 -223.557)" fill="#5ca2d5"/>
    <path id="Caminho_73" data-name="Caminho 73" d="M563.952,315.22a4.831,4.831,0,0,0-.646.081c-.291-.824-.815-2.037-1.222-2.971-.026-.07-.055-.131-.081-.2s-.087-.2-.122-.291a.638.638,0,0,0,.25-.361l.274.565.108.224Z" transform="translate(-425.82 -228.851)" fill="#444053"/>
    <path id="Caminho_74" data-name="Caminho 74" d="M566.877,310.176a6.538,6.538,0,0,0-.693-2.433,5.18,5.18,0,0,0-.992-1.164,4.109,4.109,0,0,0-.355-.291,4.493,4.493,0,0,0-2.037-.981c.041-1.618.981-1.243.981-1.243,1.08-.265,2.127.53,2.957,1.487.122.146.239.291.346.431a14.377,14.377,0,0,1,1.409,2.276S568.815,310.412,566.877,310.176Z" transform="translate(-426.473 -223.557)" fill="#5ca2d5"/>
    <path id="Caminho_75" data-name="Caminho 75" d="M566.877,310.176a6.538,6.538,0,0,0-.693-2.433,5.18,5.18,0,0,0-.992-1.164,4.109,4.109,0,0,0-.355-.291,4.493,4.493,0,0,0-2.037-.981c.041-1.618.981-1.243.981-1.243,1.08-.265,2.127.53,2.957,1.487.122.146.239.291.346.431a14.377,14.377,0,0,1,1.409,2.276S568.815,310.412,566.877,310.176Z" transform="translate(-426.473 -223.557)" opacity="0.1"/>
    <path id="Caminho_76" data-name="Caminho 76" d="M385.84,371.67s1.283,6.449,5.983,6.851a5.142,5.142,0,0,1-.582-2.267,3.312,3.312,0,0,0-.2-1.545A8.735,8.735,0,0,1,385.84,371.67Z" transform="translate(-301.012 -271.524)" fill="#fff" opacity="0.1"/>
    <path id="Caminho_77" data-name="Caminho 77" d="M515.908,60.661a67.678,67.678,0,0,1-9.036,15.529c-2.773,3.373-5.887,5.928-9.275,6.9a10.422,10.422,0,0,1-4.505.291,11.348,11.348,0,0,1-2.945-.873c-6.609-2.9-12.462-11.83-15.026-21.245-1.772-6.528-1.97-13.265.265-18.369,5.46-12.444,18.954-18.57,30.159-13.669S521.365,48.2,515.908,60.661Z" transform="translate(-363.339 -27.54)" fill="#5ca2d5"/>
    <path id="Caminho_78" data-name="Caminho 78" d="M515.908,60.661a67.678,67.678,0,0,1-9.036,15.529c-2.773,3.373-5.887,5.928-9.275,6.9a10.422,10.422,0,0,1-4.505.291,11.348,11.348,0,0,1-2.945-.873c-6.609-2.9-12.462-11.83-15.026-21.245-1.772-6.528-1.97-13.265.265-18.369,5.46-12.444,18.954-18.57,30.159-13.669S521.365,48.2,515.908,60.661Z" transform="translate(-363.339 -27.54)" opacity="0.1"/>
    <path id="Caminho_79" data-name="Caminho 79" d="M543.346,219.1c-.087,2.514-5.329,3.379-5.329,3.379s-2.156-.274-1.4-2.069a3.293,3.293,0,0,1,.236-.46,5.2,5.2,0,0,0,.64-1.673c.041-.212.076-.422.1-.632a8.536,8.536,0,0,0-.041-1.927,7.144,7.144,0,0,0-.177-.911l5.82-.611a12.274,12.274,0,0,0-1.138,1.231c-.48.611-.9,1.313-.754,1.787a.582.582,0,0,0,.291.34,1.086,1.086,0,0,0,.393.151,3.881,3.881,0,0,1,.442.113C543.966,218.3,543.346,219.1,543.346,219.1Z" transform="translate(-407.796 -159.881)" fill="#5ca2d5"/>
    <path id="Caminho_80" data-name="Caminho 80" d="M544.134,224.91l-4.074.722c.041-.212.076-.422.1-.632,1.033-.09,2.672-.291,3.711-.431A.582.582,0,0,0,544.134,224.91Z" transform="translate(-410.35 -167.233)" fill="#444053"/>
    <path id="Caminho_81" data-name="Caminho 81" d="M543.346,227.93c-.087,2.514-5.329,3.379-5.329,3.379s-2.156-.274-1.4-2.069a6.505,6.505,0,0,0,2.529,0,5.613,5.613,0,0,0,3.268-2.59C543.966,227.127,543.346,227.93,543.346,227.93Z" transform="translate(-407.796 -168.708)" fill="#5ca2d5"/>
    <path id="Caminho_82" data-name="Caminho 82" d="M543.346,227.93c-.087,2.514-5.329,3.379-5.329,3.379s-2.156-.274-1.4-2.069a6.505,6.505,0,0,0,2.529,0,5.613,5.613,0,0,0,3.268-2.59C543.966,227.127,543.346,227.93,543.346,227.93Z" transform="translate(-407.796 -168.708)" opacity="0.1"/>
    <path id="Caminho_83" data-name="Caminho 83" d="M524.67,39.1s-6.551-.535-8.23,3.876a5.26,5.26,0,0,1,2.346.047,3.286,3.286,0,0,0,1.539.233A8.668,8.668,0,0,1,524.67,39.1Z" transform="translate(-393.604 -35.725)" fill="#fff" opacity="0.1"/>
    <g id="Grupo_24" data-name="Grupo 24" transform="translate(58.741 62.779)" opacity="0.1">
      <path id="Caminho_84" data-name="Caminho 84" d="M301.584,315.524a5.248,5.248,0,0,0,.6,2.261c-4.7-.4-5.983-6.845-5.983-6.845a8.738,8.738,0,0,0,5.186,3.038A3.3,3.3,0,0,1,301.584,315.524Z" transform="translate(-296.2 -291.247)"/>
      <path id="Caminho_85" data-name="Caminho 85" d="M462.7,254.035l-2.174-5.425a11,11,0,0,0,1.481.742,10.358,10.358,0,0,1,1.522,4.263,7.77,7.77,0,0,0-.829.419Z" transform="translate(-412.706 -247.056)"/>
      <path id="Caminho_86" data-name="Caminho 86" d="M398.767,272.25c-.02.259-.047.53-.081.8a16.792,16.792,0,0,1-1.374,4.575c-.178.407-.375.821-.582,1.231-4.7,9.022-16.559,17.86-27.024,19.207a20.109,20.109,0,0,1-.407-7.526c1.333-9.79,9.6-17.112,19.865-18.576a27.1,27.1,0,0,1,7.52-.026C397.37,272.04,398.068,272.137,398.767,272.25Z" transform="translate(-347.896 -263.415)"/>
      <path id="Caminho_87" data-name="Caminho 87" d="M468.25,249.435a2.653,2.653,0,0,1-.512-.1,5.069,5.069,0,0,0-1.772-.148,4.724,4.724,0,0,0-.646.081,8.419,8.419,0,0,0-2.666.984l-2.174-5.425a11,11,0,0,0,1.481.742c.713.291,1.508.515,1.93.244a.655.655,0,0,0,.253-.361,1.178,1.178,0,0,0,.032-.422v-.46c.041-1.618.978-1.246.978-1.246,2.442-.6,4.712,4.194,4.712,4.194S470.186,249.668,468.25,249.435Z" transform="translate(-412.671 -243.272)"/>
      <path id="Caminho_88" data-name="Caminho 88" d="M474.275,254.494a4.724,4.724,0,0,0-.646.081c-.361-.972-1.013-2.488-1.429-3.454a.655.655,0,0,0,.253-.361Z" transform="translate(-420.98 -248.581)"/>
      <path id="Caminho_89" data-name="Caminho 89" d="M477.226,249.435a6.618,6.618,0,0,0-.7-2.433,5.583,5.583,0,0,0-3.39-2.433c.041-1.618.978-1.246.978-1.246,2.442-.6,4.712,4.194,4.712,4.194S479.161,249.668,477.226,249.435Z" transform="translate(-421.646 -243.272)"/>
      <path id="Caminho_90" data-name="Caminho 90" d="M477.226,249.435a6.618,6.618,0,0,0-.7-2.433,5.583,5.583,0,0,0-3.39-2.433c.041-1.618.978-1.246.978-1.246,2.442-.6,4.712,4.194,4.712,4.194S479.161,249.668,477.226,249.435Z" transform="translate(-421.646 -243.272)" opacity="0.1"/>
      <path id="Caminho_91" data-name="Caminho 91" d="M302.183,317.785c-4.7-.4-5.983-6.845-5.983-6.845a8.738,8.738,0,0,0,5.186,3.038,3.3,3.3,0,0,1,.2,1.545A5.248,5.248,0,0,0,302.183,317.785Z" transform="translate(-296.2 -291.247)" opacity="0.1"/>
    </g>
    <path id="Caminho_92" data-name="Caminho 92" d="M335.105,225.354c-.026.178-.055.355-.081.538a17.481,17.481,0,0,1-1.3,4.039c-.055.122-.111.25-.172.372-.128.291-.271.582-.422.856-4.744,9.1-16.777,18.017-27.31,19.254a18.7,18.7,0,0,1-4.773,0c-13.48-1.831-23.075-13.128-21.437-25.229,1.333-9.79,9.6-17.112,19.868-18.576.317-.047.637-.087.963-.122a27.219,27.219,0,0,1,6.554.1,76.352,76.352,0,0,1,13.678,3.006q1.377.46,2.683.984c.233.09.463.192.687.291.422.178.838.37,1.246.559.326.148.637.306.952.463a18.015,18.015,0,0,1,7.343,6.146,10.346,10.346,0,0,1,1.522,4.261A11.708,11.708,0,0,1,335.105,225.354Z" transform="translate(-225.572 -154.305)" fill="#5ca2d5"/>
    <path id="Caminho_93" data-name="Caminho 93" d="M468.25,244.765a2.652,2.652,0,0,1-.512-.1,5.143,5.143,0,0,0-1.772-.151,5.241,5.241,0,0,0-.646.084,7.964,7.964,0,0,0-1.836.562,8.061,8.061,0,0,0-.829.422l-2.174-5.425a11.391,11.391,0,0,0,1.481.742c.713.291,1.508.515,1.93.244a.655.655,0,0,0,.253-.361,1.178,1.178,0,0,0,.032-.422V239.9c.041-1.618.978-1.243.978-1.243,2.442-.6,4.712,4.194,4.712,4.194S470.186,244.995,468.25,244.765Z" transform="translate(-353.93 -177.182)" fill="#5ca2d5"/>
    <path id="Caminho_94" data-name="Caminho 94" d="M474.275,249.821a5.233,5.233,0,0,0-.646.084c-.361-.975-1.013-2.488-1.429-3.454a.655.655,0,0,0,.253-.361Z" transform="translate(-362.239 -182.491)" fill="#444053"/>
    <path id="Caminho_95" data-name="Caminho 95" d="M477.226,244.765a6.6,6.6,0,0,0-.7-2.433,5.6,5.6,0,0,0-3.39-2.436c.041-1.618.978-1.243.978-1.243,2.442-.6,4.712,4.194,4.712,4.194S479.161,244.995,477.226,244.765Z" transform="translate(-362.906 -177.181)" fill="#5ca2d5"/>
    <path id="Caminho_96" data-name="Caminho 96" d="M477.226,244.765a6.6,6.6,0,0,0-.7-2.433,5.6,5.6,0,0,0-3.39-2.436c.041-1.618.978-1.243.978-1.243,2.442-.6,4.712,4.194,4.712,4.194S479.161,244.995,477.226,244.765Z" transform="translate(-362.906 -177.181)" opacity="0.1"/>
    <path id="Caminho_97" data-name="Caminho 97" d="M296.19,306.26s1.286,6.446,5.986,6.851a5.242,5.242,0,0,1-.6-2.267,3.312,3.312,0,0,0-.2-1.545A8.712,8.712,0,0,1,296.19,306.26Z" transform="translate(-237.452 -225.15)" fill="#fff" opacity="0.1"/>
    <g id="Grupo_25" data-name="Grupo 25" transform="translate(63.951 20.156)" opacity="0.1">
      <path id="Caminho_98" data-name="Caminho 98" d="M317.461,102.808a3.341,3.341,0,0,1-1.164,1.039,5.286,5.286,0,0,0-1.537,1.769c-2.328-4.106,2.285-8.806,2.285-8.806A8.73,8.73,0,0,0,317.461,102.808Z" transform="translate(-314.104 -96.81)"/>
      <path id="Caminho_99" data-name="Caminho 99" d="M372.974,210.838q1.135.48,2.2,1.021a20.368,20.368,0,0,1-2.718.5c-7.342.873-16.745-1.423-24.033-5.774a27.063,27.063,0,0,1,7.517-.026,76.354,76.354,0,0,1,13.678,3.006C370.765,209.956,371.894,210.369,372.974,210.838Z" transform="translate(-338.433 -174.445)"/>
      <path id="Caminho_100" data-name="Caminho 100" d="M460.669,198.893a10.437,10.437,0,0,1-2.654,3.664,6.752,6.752,0,0,0-.815-.448l3.251-4.869A11.41,11.41,0,0,0,460.669,198.893Z" transform="translate(-415.556 -168.013)"/>
      <path id="Caminho_101" data-name="Caminho 101" d="M463.5,206.506s-1.583,1.49-2.488-.236a3.6,3.6,0,0,1-.2-.483,5.218,5.218,0,0,0-.873-1.551c-.137-.169-.291-.332-.428-.483a7.83,7.83,0,0,0-1.5-1.2,6.753,6.753,0,0,0-.815-.448l3.251-4.869a11.406,11.406,0,0,0,.224,1.653c.157.762.428,1.537.891,1.746a.649.649,0,0,0,.434,0,1.112,1.112,0,0,0,.37-.207c.134-.1.256-.195.373-.271,1.359-.873,1.577.1,1.577.1C466.183,201.931,463.5,206.506,463.5,206.506Z" transform="translate(-415.549 -168.013)"/>
      <path id="Caminho_102" data-name="Caminho 102" d="M467.629,208.88l-2.052,3.609c-.137-.169-.291-.332-.428-.483.6-.85,1.481-2.244,2.037-3.126A.649.649,0,0,0,467.629,208.88Z" transform="translate(-421.192 -176.265)"/>
      <path id="Caminho_103" data-name="Caminho 103" d="M472.818,212.711s-1.583,1.49-2.488-.236a6.6,6.6,0,0,0,1.618-1.947,5.6,5.6,0,0,0,.1-4.173c1.359-.873,1.577.1,1.577.1C475.5,208.136,472.818,212.711,472.818,212.711Z" transform="translate(-424.865 -174.217)"/>
      <path id="Caminho_104" data-name="Caminho 104" d="M472.818,212.711s-1.583,1.49-2.488-.236a6.6,6.6,0,0,0,1.618-1.947,5.6,5.6,0,0,0,.1-4.173c1.359-.873,1.577.1,1.577.1C475.5,208.136,472.818,212.711,472.818,212.711Z" transform="translate(-424.865 -174.217)" opacity="0.1"/>
      <path id="Caminho_105" data-name="Caminho 105" d="M317.461,102.808a3.341,3.341,0,0,1-1.164,1.039,5.286,5.286,0,0,0-1.537,1.769c-2.328-4.106,2.285-8.806,2.285-8.806A8.73,8.73,0,0,0,317.461,102.808Z" transform="translate(-314.104 -96.81)" opacity="0.1"/>
    </g>
    <path id="Caminho_106" data-name="Caminho 106" d="M352.256,96.664a10.41,10.41,0,0,1-2.654,3.664,11.522,11.522,0,0,1-2.549,1.714,16.157,16.157,0,0,1-4.118,1.374c-.582.122-1.164.21-1.781.291a.321.321,0,0,0-.116.015c-7,.809-15.855-1.266-22.953-5.238-4.834-2.7-8.85-6.269-10.925-10.407-6.091-12.165-2.183-26.46,8.731-31.934s24.714-.052,30.8,12.124a77.383,77.383,0,0,1,5.238,12.991c.116.4.224.794.326,1.19C353.635,87.718,353.967,92.776,352.256,96.664Z" transform="translate(-243.191 -46.309)" fill="#5ca2d5"/>
    <path id="Caminho_107" data-name="Caminho 107" d="M352.256,96.664a10.41,10.41,0,0,1-2.654,3.664,11.522,11.522,0,0,1-2.549,1.714,16.157,16.157,0,0,1-4.118,1.374c-.582.122-1.164.21-1.781.291a.321.321,0,0,0-.116.015c-7,.809-15.855-1.266-22.953-5.238-4.834-2.7-8.85-6.269-10.925-10.407-6.091-12.165-2.183-26.46,8.731-31.934s24.714-.052,30.8,12.124a77.383,77.383,0,0,1,5.238,12.991c.116.4.224.794.326,1.19C353.635,87.718,353.967,92.776,352.256,96.664Z" transform="translate(-243.191 -46.309)" opacity="0.1"/>
    <path id="Caminho_108" data-name="Caminho 108" d="M463.5,204.176s-1.583,1.487-2.488-.239a3.447,3.447,0,0,1-.2-.483,5.256,5.256,0,0,0-.873-1.551,6.205,6.205,0,0,0-.428-.48,7.856,7.856,0,0,0-1.5-1.2,7.3,7.3,0,0,0-.815-.448l3.251-4.866a11.4,11.4,0,0,0,.224,1.65c.157.762.428,1.537.891,1.746a.632.632,0,0,0,.434,0,1.164,1.164,0,0,0,.37-.2c.134-.1.256-.2.372-.274,1.359-.873,1.577.1,1.577.1C466.183,199.593,463.5,204.176,463.5,204.176Z" transform="translate(-351.597 -146.205)" fill="#5ca2d5"/>
    <path id="Caminho_109" data-name="Caminho 109" d="M467.629,206.54l-2.052,3.609a6.2,6.2,0,0,0-.428-.48c.6-.85,1.481-2.244,2.037-3.128A.631.631,0,0,0,467.629,206.54Z" transform="translate(-357.241 -154.45)" fill="#444053"/>
    <path id="Caminho_110" data-name="Caminho 110" d="M472.818,210.374s-1.583,1.487-2.488-.239a6.586,6.586,0,0,0,1.618-1.944,5.606,5.606,0,0,0,.1-4.176c1.359-.873,1.577.1,1.577.1C475.5,205.79,472.818,210.374,472.818,210.374Z" transform="translate(-360.913 -152.403)" fill="#5ca2d5"/>
    <path id="Caminho_111" data-name="Caminho 111" d="M472.818,210.374s-1.583,1.487-2.488-.239a6.586,6.586,0,0,0,1.618-1.944,5.606,5.606,0,0,0,.1-4.176c1.359-.873,1.577.1,1.577.1C475.5,205.79,472.818,210.374,472.818,210.374Z" transform="translate(-360.913 -152.403)" opacity="0.1"/>
    <path id="Caminho_112" data-name="Caminho 112" d="M317.056,94.47s-4.6,4.7-2.279,8.809a5.219,5.219,0,0,1,1.537-1.772,3.32,3.32,0,0,0,1.164-1.036A8.718,8.718,0,0,1,317.056,94.47Z" transform="translate(-250.167 -74.995)" fill="#fff" opacity="0.1"/>
    <path id="Caminho_113" data-name="Caminho 113" d="M632.14,168.08c-1.522,12.124-13.7,20.564-27.2,18.879-6.554-.821-13.771-2.346-19.286-5.09a17.99,17.99,0,0,1-7.409-6.094,10.43,10.43,0,0,1-1.577-4.24,11.8,11.8,0,0,1,0-3.073,20.968,20.968,0,0,1,3.812-9.022c6.481-9.368,19.743-17.662,29.975-16.373C623.948,144.76,633.665,155.959,632.14,168.08Z" transform="translate(-436.231 -109.355)" fill="#5ca2d5"/>
    <path id="Caminho_114" data-name="Caminho 114" d="M564.481,245.109a11.5,11.5,0,0,0-1.5-.736c-.722-.291-1.516-.5-1.932-.224a.582.582,0,0,0-.25.37,1.263,1.263,0,0,0-.035.413c0,.169.02.326.02.463-.02,1.624-.966,1.257-.966,1.257-2.433.626-4.752-4.153-4.752-4.153s-.352-2.142,1.586-1.932a3.426,3.426,0,0,1,.509.1,5.052,5.052,0,0,0,1.781.137,5.221,5.221,0,0,0,.64-.09,8.263,8.263,0,0,0,1.822-.582,7.34,7.34,0,0,0,.835-.437Z" transform="translate(-420.974 -177.953)" fill="#5ca2d5"/>
    <path id="Caminho_115" data-name="Caminho 115" d="M570.557,246.62a.582.582,0,0,0-.25.37l-1.857-3.719a5.214,5.214,0,0,0,.64-.09C569.463,244.155,570.129,245.665,570.557,246.62Z" transform="translate(-430.478 -180.427)" fill="#444053"/>
    <path id="Caminho_116" data-name="Caminho 116" d="M560.788,247.493c-.02,1.624-.966,1.257-.966,1.257-2.433.626-4.752-4.153-4.752-4.153s-.352-2.142,1.586-1.932a6.484,6.484,0,0,0,.719,2.421A5.582,5.582,0,0,0,560.788,247.493Z" transform="translate(-420.974 -180.052)" fill="#5ca2d5"/>
    <path id="Caminho_117" data-name="Caminho 117" d="M560.788,247.493c-.02,1.624-.966,1.257-.966,1.257-2.433.626-4.752-4.153-4.752-4.153s-.352-2.142,1.586-1.932a6.484,6.484,0,0,0,.719,2.421A5.582,5.582,0,0,0,560.788,247.493Z" transform="translate(-420.974 -180.052)" opacity="0.1"/>
    <path id="Caminho_118" data-name="Caminho 118" d="M736.353,177.792S735,171.358,730.3,171a5.28,5.28,0,0,1,.617,2.264,3.32,3.32,0,0,0,.215,1.542A8.732,8.732,0,0,1,736.353,177.792Z" transform="translate(-545.226 -129.253)" fill="#fff" opacity="0.1"/>
    <path id="Caminho_119" data-name="Caminho 119" d="M570.394,222.065a17.991,17.991,0,0,1-7.409-6.094c-.722-.291-1.516-.5-1.932-.224a.582.582,0,0,0-.25.37,1.263,1.263,0,0,0-.035.413c0,.169.02.326.02.463-.02,1.624-.966,1.257-.966,1.257-2.433.626-4.752-4.153-4.752-4.153s-.352-2.142,1.586-1.932a3.43,3.43,0,0,1,.509.1,5.052,5.052,0,0,0,1.781.137,5.221,5.221,0,0,0,.64-.09,8.263,8.263,0,0,0,1.822-.582,11.794,11.794,0,0,1,0-3.073,20.968,20.968,0,0,1,3.812-9.022C568.689,207.1,571.448,215.572,570.394,222.065Z" transform="translate(-420.974 -149.551)" opacity="0.1"/>
    <path id="Caminho_120" data-name="Caminho 120" d="M472.876,197.558a15.859,15.859,0,0,1-1.892.736,17.948,17.948,0,0,1-1.793.469l-.4.081c-.524.1-1.068.178-1.618.239-.416.052-.835.087-1.266.114-8.061.524-18.171-2.48-25.29-7.634a26.858,26.858,0,0,1-5.256-4.915,18.371,18.371,0,0,1-2.066-3.2,26.934,26.934,0,0,1-2.835-10.477c-.02-.387-.035-.762-.035-1.144-.113-8.44,3.952-16.3,11.265-20.136,1.374,5.282,1.7,10.34,0,14.228.157.762.428,1.537.891,1.746a.632.632,0,0,0,.434,0,1.164,1.164,0,0,0,.37-.2c.134-.1.256-.2.372-.274,1.359-.873,1.577.1,1.577.1,1.877,1.679-.8,6.257-.8,6.257s-1.583,1.487-2.488-.239a3.453,3.453,0,0,1-.2-.483,5.256,5.256,0,0,0-.873-1.551,6.2,6.2,0,0,0-.428-.48,7.855,7.855,0,0,0-1.5-1.2,11.52,11.52,0,0,1-2.549,1.714,16.158,16.158,0,0,1-4.118,1.374c.326.148.637.306.952.463a18.014,18.014,0,0,1,7.342,6.146c.713.291,1.508.515,1.93.244a.655.655,0,0,0,.253-.361,1.179,1.179,0,0,0,.032-.422v-.463c.041-1.618.978-1.243.978-1.243,2.442-.6,4.712,4.194,4.712,4.194s.332,2.148-1.6,1.918a2.652,2.652,0,0,1-.512-.1,5.143,5.143,0,0,0-1.772-.151,5.233,5.233,0,0,0-.646.084,7.965,7.965,0,0,0-1.836.562,11.708,11.708,0,0,1-.02,3.073c-.026.178-.055.355-.081.538a1.582,1.582,0,0,1,.163.026,72.919,72.919,0,0,1,11.591,2.7c1.164.387,2.29.8,3.373,1.272.754.317,1.487.658,2.194,1.019a18,18,0,0,1,7.342,6.146c.716.291,1.51.515,1.932.244a.637.637,0,0,0,.25-.361,1.112,1.112,0,0,0,.035-.422c0-.169-.015-.32-.015-.463.041-1.618.981-1.243.981-1.243C471,195.806,472.046,196.6,472.876,197.558Z" transform="translate(-332.62 -115.563)" opacity="0.1"/>
    <g id="Grupo_26" data-name="Grupo 26" transform="translate(102.701 31.761)" opacity="0.1">
      <path id="Caminho_121" data-name="Caminho 121" d="M450.611,183.2a3.335,3.335,0,0,1-1.164,1.033A5.282,5.282,0,0,0,447.911,186c-2.328-4.106,2.284-8.8,2.284-8.8A8.719,8.719,0,0,0,450.611,183.2Z" transform="translate(-447.254 -165.41)"/>
      <path id="Caminho_122" data-name="Caminho 122" d="M508.967,150.946c.428.856.856,1.746,1.272,2.619-2.773,3.373-5.887,5.928-9.275,6.9-.48.611-.9,1.313-.754,1.787a.582.582,0,0,0,.291.34,1.085,1.085,0,0,0,.393.151,3.875,3.875,0,0,1,.442.113c1.551.477.931,1.281.931,1.281-.087,2.514-5.329,3.379-5.329,3.379s-2.156-.274-1.4-2.069a3.306,3.306,0,0,1,.236-.46,5.2,5.2,0,0,0,.64-1.673c.041-.212.076-.422.1-.632a8.539,8.539,0,0,0-.041-1.927,11.351,11.351,0,0,1-2.945-.873c-6.609-2.9-12.462-11.83-15.025-21.245C489.352,133.473,502.931,138.906,508.967,150.946Z" transform="translate(-469.407 -136.688)"/>
      <path id="Caminho_123" data-name="Caminho 123" d="M593.806,279.274a10.457,10.457,0,0,1-2.651,3.673,7.107,7.107,0,0,0-.815-.451l3.251-4.866A12.092,12.092,0,0,0,593.806,279.274Z" transform="translate(-548.699 -236.613)"/>
      <path id="Caminho_124" data-name="Caminho 124" d="M596.622,286.9s-1.583,1.487-2.488-.239a3.13,3.13,0,0,1-.2-.483,5.1,5.1,0,0,0-.873-1.548,4.952,4.952,0,0,0-.428-.483,7.95,7.95,0,0,0-1.5-1.2,7.107,7.107,0,0,0-.815-.451l3.251-4.866a12.111,12.111,0,0,0,.215,1.644c.163.762.437,1.542.9,1.746a.6.6,0,0,0,.434,0,1.114,1.114,0,0,0,.367-.2,4.351,4.351,0,0,1,.375-.271c1.359-.891,1.577.1,1.577.1C599.314,282.321,596.622,286.9,596.622,286.9Z" transform="translate(-548.678 -236.613)"/>
      <path id="Caminho_125" data-name="Caminho 125" d="M600.792,289.253l-2.057,3.606a6.117,6.117,0,0,0-.425-.477c.6-.856,1.484-2.247,2.037-3.131A.6.6,0,0,0,600.792,289.253Z" transform="translate(-554.349 -244.851)"/>
      <path id="Caminho_126" data-name="Caminho 126" d="M605.938,293.115s-1.583,1.487-2.488-.239a6.493,6.493,0,0,0,1.615-1.935,5.606,5.606,0,0,0,.1-4.176c1.359-.873,1.58.1,1.58.1C608.63,288.537,605.938,293.115,605.938,293.115Z" transform="translate(-557.994 -242.832)"/>
      <path id="Caminho_127" data-name="Caminho 127" d="M605.938,293.115s-1.583,1.487-2.488-.239a6.493,6.493,0,0,0,1.615-1.935,5.606,5.606,0,0,0,.1-4.176c1.359-.873,1.58.1,1.58.1C608.63,288.537,605.938,293.115,605.938,293.115Z" transform="translate(-557.994 -242.832)" opacity="0.1"/>
      <path id="Caminho_128" data-name="Caminho 128" d="M450.611,183.2a3.335,3.335,0,0,1-1.164,1.033A5.282,5.282,0,0,0,447.911,186c-2.328-4.106,2.284-8.8,2.284-8.8A8.719,8.719,0,0,0,450.611,183.2Z" transform="translate(-447.254 -165.41)" opacity="0.1"/>
    </g>
    <path id="Caminho_129" data-name="Caminho 129" d="M477.508,155.639c6.1,12.162,11.265,28.314.346,33.788s-33.8-1.8-39.893-13.969-2.186-26.46,8.731-31.934S471.411,143.478,477.508,155.639Z" transform="translate(-335.925 -108.262)" fill="#5ca2d5"/>
    <path id="Caminho_130" data-name="Caminho 130" d="M594.3,291.576s-1.583,1.484-2.488-.242a4.048,4.048,0,0,1-.2-.48,5.139,5.139,0,0,0-.873-1.554,5.715,5.715,0,0,0-.428-.48,8.352,8.352,0,0,0-2.328-1.647l3.254-4.863s.148,2.977,1.112,3.379a.6.6,0,0,0,.439,0,1.216,1.216,0,0,0,.367-.207c.134-.1.259-.2.373-.271,1.359-.888,1.58.1,1.58.1C596.984,287,594.3,291.576,594.3,291.576Z" transform="translate(-444.325 -208.17)" fill="#5ca2d5"/>
    <path id="Caminho_131" data-name="Caminho 131" d="M598.452,293.926l-2.055,3.606a5.709,5.709,0,0,0-.428-.48c.582-.853,1.484-2.247,2.037-3.131A.6.6,0,0,0,598.452,293.926Z" transform="translate(-449.989 -216.401)" fill="#444053"/>
    <path id="Caminho_132" data-name="Caminho 132" d="M603.628,297.757s-1.583,1.484-2.488-.242a6.543,6.543,0,0,0,1.621-1.944,5.6,5.6,0,0,0,.1-4.173c1.359-.888,1.58.1,1.58.1C606.314,293.176,603.628,297.757,603.628,297.757Z" transform="translate(-453.655 -214.35)" fill="#5ca2d5"/>
    <path id="Caminho_133" data-name="Caminho 133" d="M603.628,297.757s-1.583,1.484-2.488-.242a6.543,6.543,0,0,0,1.621-1.944,5.6,5.6,0,0,0,.1-4.173c1.359-.888,1.58.1,1.58.1C606.314,293.176,603.628,297.757,603.628,297.757Z" transform="translate(-453.655 -214.35)" opacity="0.1"/>
    <path id="Caminho_134" data-name="Caminho 134" d="M447.856,181.86s-4.6,4.7-2.279,8.809a5.283,5.283,0,0,1,1.537-1.772,3.32,3.32,0,0,0,1.164-1.036A8.739,8.739,0,0,1,447.856,181.86Z" transform="translate(-342.901 -136.953)" fill="#fff" opacity="0.1"/>
    <path id="Caminho_135" data-name="Caminho 135" d="M596.551,301.85a3.923,3.923,0,0,0-.23,5.943c2.174,1.8,5.422.672,8.23.975a11.025,11.025,0,0,1,7.057,4.345,18.433,18.433,0,0,1,3.679,15.078c-.55,2.68-1.7,5.212-2.221,7.9a31.714,31.714,0,0,0,.076,9.8,19.075,19.075,0,0,0,1.836,7.054c1.883,3.4,5.553,5.4,9.211,6.694s7.529,2.1,10.937,3.955a19.644,19.644,0,0,1,9.479,12.2,1.956,1.956,0,0,1,.029,1.222.722.722,0,0,1-1.007.4" transform="translate(-449.352 -222.023)" fill="none" stroke="#444053" stroke-miterlimit="10" stroke-width="1"/>
    <path id="Caminho_136" data-name="Caminho 136" d="M566.464,321.42a1.843,1.843,0,0,0,1.234,1.994,2.864,2.864,0,0,0,2.439-.378c.873-.556,1.656-1.49,2.7-1.455a2.638,2.638,0,0,1,1.865,1.164,10.211,10.211,0,0,0,1.438,1.746,4.366,4.366,0,0,0,1.723.786,4.918,4.918,0,0,0,2.261.108c1.606-.352,2.785-1.784,4.365-2.241,2.09-.6,4.249.632,5.922,2.02a14.216,14.216,0,0,1,4.642,6.161,25.7,25.7,0,0,1,.873,5.081,10.5,10.5,0,0,0,1.6,4.857,4.528,4.528,0,0,0,4.447,2" transform="translate(-429.049 -235.898)" fill="none" stroke="#444053" stroke-miterlimit="10" stroke-width="1"/>
    <path id="Caminho_137" data-name="Caminho 137" d="M708.053,282.356s-9.211-5.18-9.982-5.707,0-1.263,0-1.263c-1.476-.949-4.537,1-4.537,1s1.115.276,2.168.611c-3.824-1-10.221-2.869-13.48-4.974a5.874,5.874,0,0,0-6.274-.349l-.035-.1c-.39-1.214-.326-2.541-.8-3.728a4.785,4.785,0,0,0-3.53-2.788c-.873-.175-1.027-.084-1.545-.748a3.094,3.094,0,0,0-2.13-1.3,12.775,12.775,0,0,0-3.527-.413,4.252,4.252,0,0,0-3.105,1.455c-.4.521-.614,1.15-1,1.676-1.863,2.523-6.3,1.377-8.675,3.46-1.455,1.286-1.691,3.393-2.017,5.285s-1.094,4.025-2.957,4.656a11.422,11.422,0,0,1-2.794.253,2.777,2.777,0,0,0-2.383,1.211,2.157,2.157,0,0,0-.192,1.054.555.555,0,0,0,0,.07v.038a12.314,12.314,0,0,0,.224,1.606V283.3a1.94,1.94,0,0,1-.4,1.839c-1.036.978-3.283.084-3.929,1.339a1.124,1.124,0,0,0-.113.582,2,2,0,0,0,.643,1.432,13.984,13.984,0,0,1,1.525,1.429,2.33,2.33,0,0,1,.361.774.753.753,0,0,1,.017-.079,2.45,2.45,0,0,1-.052,1.327c-3.408-.137-8.44-.451-9.467-1.135-1.572-1.053-8.94-2.835-8.94-2.835l-.084-.052h0l-.242-.14-.227-.125-.044-.023c-.087-.047-.18-.1-.291-.146h-.02l-.291-.146-.052-.023-.338-.148-.058-.026c-.108-.044-.218-.087-.332-.128l-.038-.015c-.119-.044-.241-.081-.361-.119l-.064-.017a3.807,3.807,0,0,0-.725-.137h-.367l-.09.015a.86.86,0,0,0-.093.017,1.084,1.084,0,0,0-.172.058.655.655,0,0,0-.268.317l-.524-.2-9.124-3.524a16.421,16.421,0,0,1-1.586-.949,18.977,18.977,0,0,0-4.977-1.857l-.064-.044v.029c-2.008-.361-3.713,0-3.114,2.529,1.263,5.332,8.21,4.7,8.21,4.7l9.845,4.2.646.276c-.058,2.945.233,6.05.969,6.461a3.625,3.625,0,0,0,.37.183l.079.038c.119.052.239.1.355.137h.026c.116.041.23.073.338.1h.049c.116.032.233.055.34.076h0a5.135,5.135,0,0,0,1.118.087h.128L620,295.854a2.5,2.5,0,0,1,.329.151h0a7.379,7.379,0,0,1,1.027.693c.873.684,6.664,1.368,6.664,1.368s5.529,2.052,5.852,2.477,16.146.893,16.146.893-2.165,4.843,3.847,9.688c0,0,1.027,6.315.378,8.053a15.719,15.719,0,0,0-.506,4.435c-1.976.7-6.693,2.477-7.892,3.961-1.542,1.895-2.762,1.895-2.762,1.895s-1.545,2.91-3.414,3.632-7.884,3.949-8.454,4.816-5.608,3.783-5.608,3.783-5.2,4.106-6.178,5.605-7.8,4.345-7.8,4.345a7.76,7.76,0,0,0-1.3,5.369c.567,2.75-4.6,1.263-.108,5.922a22.6,22.6,0,0,0,5.343,3.51c-.169.1-.338.192-.5.274a4.616,4.616,0,0,1-.829.323c-2.683.71-10.323,12.948-10.323,12.948s-4.677,5.873-8.294,8.012c-.122.073-.244.14-.364.2h0a5.3,5.3,0,0,0-2.552-1.889,13.531,13.531,0,0,0-4.074-1.109,5.657,5.657,0,0,1-2.846-1A7.415,7.415,0,0,0,583.5,382.9c-1.129-.355-2.06-.061-1.6,2.078a17.487,17.487,0,0,0,2.439,5.975s5.014,4.394,5.474,5.949,2.547,3.291,2.872,3.079c.1-.07.652-.4,1.342-.873,1.409-.934,3.417-2.4,3.533-3.245a5.778,5.778,0,0,0-.582.047c.047-.087.1-.189.169-.308.661-1.164,2.3-3.8,4.24-4.712l7.724-7.4s8.21-4.263,9.6-7.421c.582-1.318,2.619-3.242,4.819-5.035l.483-.393c6.542,3.225,13.46,6.985,16.562,11.428,4.461,6.4,14.531,8.763,19.251,9.534.029.367.052.719.067,1.048a18.312,18.312,0,0,1-.218,4.106c-.245,1.42-.18,12.476-.18,12.476s.506,5.684-.957,7.5c-.751.934-1.333,3.161-1.72,5.1-.023.116-.044.233-.067.349a2.964,2.964,0,0,0-1.519,2.186s-1.246.815-.946,4.051c.073.783.1,1.455.131,2.037.114,1.836.314,2.709,2.308,2.689,2.619-.026,8.1-2.709,8.1-2.709a8.6,8.6,0,0,0-.058-1.647,6.579,6.579,0,0,0-1.051-2.957l.02-.055.061-.143c.052-.128.1-.271.148-.416l.018-.038h0a3.568,3.568,0,0,0,.186-1.033v-3.7s.163-5.369,1.455-8.213c1.048-2.29,3.836-12.988,4.028-18.422a11.657,11.657,0,0,0-.029-1.528.774.774,0,0,0,.553-.739c-.082-2.055-1.706-1.106-.893-5.134s1.382-9,2.843-11.37a40.78,40.78,0,0,0,2.683-5.448s3.088-10.424,4.389-12.951,6.26-18.951-1.624-26.611l-.431-1.668a.091.091,0,0,1,.026-.055h0c.047-.1.175-.387.341-.783h0c.14-.326.291-.73.466-1.164h0c.093-.25.183-.512.274-.777h0c.131-.393.247-.794.338-1.164h0l.044-.192a4.343,4.343,0,0,0,4.656-2.162c.34-.195.48-.381.309-.544-.975-.949-.1-3-.1-3l.049-8.949s1.138-.212,1.411-3.37a8.175,8.175,0,0,1,2.261-5.014c2.439-2.68,9.208-5.591,9.208-5.591,4.872-1.595,12.141-8.568,12.141-8.568C712.441,283.811,708.053,282.356,708.053,282.356Zm-10.675,3.612a32.135,32.135,0,0,0-4.93,2.008s-2.055.518-3.9,1.214a6.544,6.544,0,0,1-4.226-.361c-1.246-1.673-5.471.728-6.449,1.307a1.58,1.58,0,0,1-2.06-.323,6.863,6.863,0,0,1-.7-.73,2.759,2.759,0,0,0-.722-.6,6.418,6.418,0,0,1,1.187-1.5c1.027-1,2.244-1.807,3.28-2.8a5.855,5.855,0,0,0,2.011-3.661v-.183a4.817,4.817,0,0,0-.632-2.523,20.751,20.751,0,0,0,2.6.393,22.826,22.826,0,0,1,7.351,2.253l.375.178-.2.07.073.093-.073.023.017.023h0l.146.189.02.023c.07.09.157.2.262.329l.032.038c.108.131.23.274.364.425l.035.041c.137.154.291.314.439.474l.041.041c.14.143.291.291.434.425h0a8.024,8.024,0,0,0,.629.527l.023.015a4.807,4.807,0,0,0,.53.343l.052.029a2.464,2.464,0,0,0,.253.116,1.786,1.786,0,0,0,2.221-.789,3.019,3.019,0,0,1,.6.239C697.943,284.047,698.723,285.7,697.378,285.968Z" transform="translate(-439.927 -194.186)" fill="url(#linear-gradient)"/>
    <path id="Caminho_138" data-name="Caminho 138" d="M908.116,298.886v1.621l-6.81,1.889s-.623-.352-1.592-.815a21.9,21.9,0,0,0-7.162-2.258c-3.722-.242-15.957-3.923-12.275-4.752s3.393,0,3.393,0,3.577-4.56,8.291-1.432c3.58,2.381,11.044,4.461,14.426,5.326C907.458,298.723,908.116,298.886,908.116,298.886Z" transform="translate(-651.073 -215.07)" fill="#efb7b9"/>
    <path id="Caminho_139" data-name="Caminho 139" d="M794.338,263.708a12.175,12.175,0,0,0-3.434-.416,4.124,4.124,0,0,0-3.03,1.473c-.384.521-.6,1.164-.975,1.679-1.813,2.532-6.143,1.382-8.454,3.472-1.426,1.289-1.644,3.4-1.961,5.3s-1.068,4.036-2.884,4.671a10.752,10.752,0,0,1-2.721.25,2.7,2.7,0,0,0-2.328,1.214c-.69,1.42.792,3.463-.343,4.563-1.013.978-3.2.081-3.83,1.342a1.733,1.733,0,0,0,.515,1.868,14.14,14.14,0,0,1,1.487,1.432,2.447,2.447,0,0,1-1.924,3.85c-.8.026-1.705-.317-2.346.169a1.662,1.662,0,0,0-.53,1.385,3.434,3.434,0,0,0,3.516,3.2,7.717,7.717,0,0,0,3.626-1.746c1.12-.762,2.474-1.478,3.783-1.132a6.174,6.174,0,0,1,1.7.893,17.355,17.355,0,0,0,5.151,2.212,5.973,5.973,0,0,0,4.8-.41c1.545-1.059,2.124-3.227,3.783-4.074,1.746-.888,3.815.049,5.614.829s4.153,1.307,5.506-.111c1.455-1.528.614-4.1,1.368-6.071a5.719,5.719,0,0,1,1.362-1.956c1-1.007,2.186-1.816,3.2-2.811a5.864,5.864,0,0,0,1.959-3.673c.111-1.705-.9-3.271-1.988-4.589a13.285,13.285,0,0,1-2.837-4.226c-.378-1.216-.317-2.546-.777-3.737a4.685,4.685,0,0,0-3.44-2.8c-.873-.175-1-.084-1.508-.754A2.992,2.992,0,0,0,794.338,263.708Z" transform="translate(-567.398 -194.675)" fill="#925978"/>
    <g id="Grupo_27" data-name="Grupo 27" transform="translate(194.196 85.671)" opacity="0.1">
      <path id="Caminho_140" data-name="Caminho 140" d="M784.987,327.2a6.346,6.346,0,0,0,.16,2.25A6.142,6.142,0,0,0,784.987,327.2Z" transform="translate(-778.153 -325.666)"/>
      <path id="Caminho_141" data-name="Caminho 141" d="M772.947,349.287a2.328,2.328,0,0,1,.349.777,2.505,2.505,0,0,0-.349-2.037,13.331,13.331,0,0,0-1.487-1.432,2.479,2.479,0,0,1-.466-.675.685.685,0,0,0-.049.076,1.733,1.733,0,0,0,.515,1.868A13.506,13.506,0,0,1,772.947,349.287Z" transform="translate(-768.156 -338.938)"/>
      <path id="Caminho_142" data-name="Caminho 142" d="M805.056,325.239c-1.01,1-2.194,1.8-3.2,2.811a5.742,5.742,0,0,0-1.362,1.959c-.754,1.973.09,4.54-1.368,6.068-1.353,1.417-3.708.891-5.506.111s-3.868-1.717-5.614-.829c-1.668.85-2.247,3.021-3.783,4.074a5.976,5.976,0,0,1-4.8.41,17.354,17.354,0,0,1-5.151-2.212,6.175,6.175,0,0,0-1.7-.893c-1.315-.346-2.666.364-3.783,1.135a7.569,7.569,0,0,1-3.626,1.746A3.465,3.465,0,0,1,761.726,337a2.288,2.288,0,0,0-.079.672,3.437,3.437,0,0,0,3.516,3.2,7.717,7.717,0,0,0,3.626-1.746c1.12-.762,2.474-1.478,3.783-1.132a6.166,6.166,0,0,1,1.7.891,17.288,17.288,0,0,0,5.151,2.215,6,6,0,0,0,4.8-.41c1.545-1.059,2.124-3.227,3.783-4.074,1.746-.891,3.815.047,5.614.827s4.153,1.307,5.506-.111c1.455-1.525.614-4.095,1.368-6.068a5.769,5.769,0,0,1,1.362-1.959c1-1,2.186-1.813,3.2-2.808a5.872,5.872,0,0,0,1.959-3.673,3.97,3.97,0,0,0-.044-.893A6.141,6.141,0,0,1,805.056,325.239Z" transform="translate(-761.646 -321.93)"/>
    </g>
    <path id="Caminho_143" data-name="Caminho 143" d="M906.084,465.6l2.587.21s-1.95,4.4-6.111,2.229S906.084,465.6,906.084,465.6Z" transform="translate(-666.479 -338.118)" fill="#4c4981"/>
    <path id="Caminho_144" data-name="Caminho 144" d="M906.084,465.6l2.587.21s-1.95,4.4-6.111,2.229S906.084,465.6,906.084,465.6Z" transform="translate(-666.479 -338.118)" opacity="0.1"/>
    <path id="Caminho_145" data-name="Caminho 145" d="M654.757,608.9s-3.254,2.258-6.237,4.77c-2.136,1.8-4.133,3.728-4.694,5.049-1.359,3.169-9.356,7.459-9.356,7.459l-7.526,7.447c-1.883.911-3.492,3.55-4.13,4.726-.195.358-.291.582-.291.582h-3.4l-2.057-2.06s-1.109-4.988,2.375-5.384a4.916,4.916,0,0,0,1.9-.757c3.527-2.145,8.082-8.035,8.082-8.035s7.444-12.275,10.058-12.988a4.363,4.363,0,0,0,.809-.323c2.584-1.3,6-5.3,6-5.3Z" transform="translate(-464.824 -436.305)" fill="#efb7b9"/>
    <path id="Caminho_146" data-name="Caminho 146" d="M848.126,686.448c-.186,5.448-2.91,16.178-3.923,18.474-1.269,2.852-1.426,8.239-1.426,8.239v3.722a4.3,4.3,0,0,1-.343,1.5,7.365,7.365,0,0,1-.37.8l-6.984-1.187s.186-1.592.541-3.437c.378-1.95.946-4.182,1.676-5.116,1.426-1.822.931-7.526.931-7.526s-.061-11.088.177-12.514a18.814,18.814,0,0,0,.212-4.118c-.032-.739-.1-1.58-.212-2.535a51.979,51.979,0,0,1,0-8.236l8,.4,1.344,8.713A5.573,5.573,0,0,1,848.126,686.448Z" transform="translate(-619.513 -486.231)" fill="#efb7b9"/>
    <path id="Caminho_147" data-name="Caminho 147" d="M622.815,703.219c-.195.358-.291.582-.291.582h-3.4l-2.057-2.06s-1.109-4.988,2.375-5.384a4.916,4.916,0,0,0,1.9-.757c.48,1.455-1.051,2.948-1.051,2.948s-.634.605-.16,2.957C620.431,703.1,621.91,703.257,622.815,703.219Z" transform="translate(-464.824 -501.183)" opacity="0.1"/>
    <path id="Caminho_148" data-name="Caminho 148" d="M601.183,690.686c-.114.844-2.072,2.328-3.443,3.254-.672.463-1.2.794-1.307.873-.317.212-2.351-1.531-2.8-3.088s-5.334-5.966-5.334-5.966a17.836,17.836,0,0,1-2.375-5.992c-.448-2.145.46-2.442,1.557-2.087A7.222,7.222,0,0,1,589.7,679a5.415,5.415,0,0,0,2.776,1.007,12.943,12.943,0,0,1,3.964,1.112,5.119,5.119,0,0,1,2.485,1.895c.582,1.508-1.013,3.064-1.013,3.064s-.634.605-.16,2.957S601.195,690.608,601.183,690.686Z" transform="translate(-442.785 -488.389)" fill="#444053"/>
    <path id="Caminho_149" data-name="Caminho 149" d="M597.74,693.94c-.672.463-1.2.794-1.307.873-.317.212-2.351-1.531-2.8-3.088s-5.334-5.966-5.334-5.966a17.836,17.836,0,0,1-2.375-5.992c-.448-2.145.46-2.442,1.557-2.087.4,1.694,1.269,4.976,2.378,6.6C591.178,686.2,596.341,692.293,597.74,693.94Z" transform="translate(-442.785 -488.389)" opacity="0.1"/>
    <path id="Caminho_150" data-name="Caminho 150" d="M842.356,815.366l.079.119a7.383,7.383,0,0,1-.37.8L835.08,815.1s.186-1.592.541-3.437c2.558-1.094,6.961,3.05,6.961,3.05Z" transform="translate(-619.513 -583.338)" opacity="0.1"/>
    <path id="Caminho_151" data-name="Caminho 151" d="M838.667,821.045s-5.332,2.692-7.89,2.718c-1.944.02-2.139-.856-2.25-2.695-.032-.582-.058-1.272-.128-2.057-.291-3.245.923-4.074.923-4.074,1.4-5.861,8.507.827,8.507.827l-.242.655a6.722,6.722,0,0,1,1.024,2.966A8.756,8.756,0,0,1,838.667,821.045Z" transform="translate(-614.745 -584.084)" fill="#444053"/>
    <path id="Caminho_152" data-name="Caminho 152" d="M839.089,837.77s-5.331,2.692-7.89,2.718c-1.944.02-2.139-.856-2.25-2.695a5.96,5.96,0,0,0,4.729.716,18.161,18.161,0,0,0,5.355-2.389A8.75,8.75,0,0,1,839.089,837.77Z" transform="translate(-615.167 -600.809)" opacity="0.1"/>
    <path id="Caminho_153" data-name="Caminho 153" d="M861.06,340.712l-.92,9.854-.189,2.037-3.978,1.039-4.1,1.074-4.752-1.053s-1.828-4.147-1.2-7.523a4.819,4.819,0,0,1,1.746-3.041,4.318,4.318,0,0,0,.789-.792,3.766,3.766,0,0,0,.6-1.141,4.411,4.411,0,0,0,.192-1.569,10.871,10.871,0,0,0-2.107-5.209s9.188-4.54,8.713-2.328c-.308,1.438,1.359,3.652,2.567,5.029.658.748,1.164,1.251,1.164,1.251Z" transform="translate(-627.103 -243.011)" fill="#efb7b9"/>
    <circle id="Elipse_22" data-name="Elipse 22" cx="8.422" cy="8.422" r="8.422" transform="translate(215.29 78.389)" opacity="0.1"/>
    <circle id="Elipse_23" data-name="Elipse 23" cx="8.422" cy="8.422" r="8.422" transform="translate(215.29 78.072)" fill="#efb7b9"/>
    <path id="Caminho_154" data-name="Caminho 154" d="M847.625,396.177a20.544,20.544,0,0,1-1.589,5.026l-11.289,4.392-9.461-7.6v-.052c.151-.85,1.988-11.548-.643-13.783-2.747-2.328-2.8-9.871-2.8-9.871s3.539-5.343,4.237-6.609,6-2.884,6-2.884c-.227.4-.425.78-.6,1.141a10.323,10.323,0,0,0-.96,3,4.26,4.26,0,0,0,.509,3.047,3.339,3.339,0,0,1,.387.742c1.429,3.871,5.509,2.768,7.113,2.156a6.374,6.374,0,0,0,.661-.291l3.993-.39,2.5-.242s1.426,19.79,1.9,21.329A2.368,2.368,0,0,1,847.625,396.177Z" transform="translate(-610.126 -266.646)" fill="#444053"/>
    <path id="Caminho_155" data-name="Caminho 155" d="M843.208,368.74v.015a12.112,12.112,0,0,0-.489,1.164H838.4a12.259,12.259,0,0,1,2.267-1.164Z" transform="translate(-621.867 -269.447)" fill="#925978"/>
    <path id="Caminho_156" data-name="Caminho 156" d="M839.024,375.46a7.91,7.91,0,0,0-.221,1.056.353.353,0,0,1-.015.122H833.55c.291-.474.553-.888.716-1.179Z" transform="translate(-618.428 -274.211)" fill="#fff"/>
    <path id="Caminho_157" data-name="Caminho 157" d="M835.836,383.394H829.25c.256-.4.515-.8.757-1.164h5.681A4.61,4.61,0,0,0,835.836,383.394Z" transform="translate(-615.38 -279.011)" fill="#fff"/>
    <path id="Caminho_158" data-name="Caminho 158" d="M833.624,390.164H824.85c.233-.349.495-.754.774-1.164h7.418c.038.067.076.131.113.186a3.254,3.254,0,0,1,.387.739C833.563,389.989,833.6,390.071,833.624,390.164Z" transform="translate(-612.26 -283.811)" fill="#fff"/>
    <path id="Caminho_159" data-name="Caminho 159" d="M821.88,396.163v.646h11.263a3.683,3.683,0,0,1-1.208-1.179h-9.7Z" transform="translate(-610.155 -288.511)" fill="#fff"/>
    <path id="Caminho_160" data-name="Caminho 160" d="M886.049,397.312H878.68l.128-.047c.41-.16.661-.291.661-.291l3.993-.39,2.5-.244S885.99,396.7,886.049,397.312Z" transform="translate(-650.424 -289.014)" fill="#925978"/>
    <path id="Caminho_161" data-name="Caminho 161" d="M846.051,403.564H822.188c-.047-.431-.082-.827-.108-1.164h23.864C845.99,402.738,846.019,403.133,846.051,403.564Z" transform="translate(-610.296 -293.311)" fill="#fff"/>
    <path id="Caminho_162" data-name="Caminho 162" d="M846.729,410.294H823c-.073-.4-.137-.8-.186-1.164h23.82C846.659,409.491,846.685,409.884,846.729,410.294Z" transform="translate(-610.814 -298.082)" fill="#fff"/>
    <path id="Caminho_163" data-name="Caminho 163" d="M847.748,416.979H824.341c-.114-.387-.215-.783-.291-1.179h23.619C847.687,416.184,847.719,416.577,847.748,416.979Z" transform="translate(-611.693 -302.811)" fill="#fff"/>
    <path id="Caminho_164" data-name="Caminho 164" d="M849.246,423.734H826.48a9.462,9.462,0,0,1-.53-1.164h23.206C849.185,422.945,849.217,423.338,849.246,423.734Z" transform="translate(-613.04 -307.611)" fill="#fff"/>
    <path id="Caminho_165" data-name="Caminho 165" d="M851.93,430.436H830.564a2.3,2.3,0,0,0-.471-.559,4.076,4.076,0,0,1-.582-.617h22.327C851.863,429.653,851.9,430.057,851.93,430.436Z" transform="translate(-615.564 -312.354)" fill="#fff"/>
    <path id="Caminho_166" data-name="Caminho 166" d="M855.56,437.164H834.711A7.465,7.465,0,0,0,834.4,436h21.061C855.493,436.384,855.528,436.78,855.56,437.164Z" transform="translate(-619.031 -317.133)" fill="#fff"/>
    <path id="Caminho_167" data-name="Caminho 167" d="M856.775,443.9H835.982c-.023-.4-.052-.8-.1-1.164h20.8C856.708,443.127,856.74,443.52,856.775,443.9Z" transform="translate(-620.08 -321.911)" fill="#925978"/>
    <path id="Caminho_168" data-name="Caminho 168" d="M857.244,450.634H836.29V449.47h20.834C857.159,449.863,857.209,450.256,857.244,450.634Z" transform="translate(-620.371 -326.682)" fill="#925978"/>
    <path id="Caminho_169" data-name="Caminho 169" d="M857.245,457.354H836c.029-.384.049-.78.07-1.164h21.044C857.154,456.594,857.2,456.987,857.245,457.354Z" transform="translate(-620.165 -331.447)" fill="#925978"/>
    <path id="Caminho_170" data-name="Caminho 170" d="M857.02,464.074H835.38c.041-.375.079-.768.116-1.164h21.378C856.93,463.358,856.977,463.754,857.02,464.074Z" transform="translate(-619.726 -336.211)" fill="#925978"/>
    <path id="Caminho_171" data-name="Caminho 171" d="M856.614,470.533a1.76,1.76,0,0,1-.032.271H834.52c.052-.346.1-.745.154-1.164H856.55c0,.007,0,.014,0,.02A2.351,2.351,0,0,1,856.614,470.533Z" transform="translate(-619.116 -340.983)" fill="#fff"/>
    <path id="Caminho_172" data-name="Caminho 172" d="M855.841,476.32c-.09.381-.2.786-.329,1.179H834.2l-.524-.422v-.055c.017-.1.058-.343.116-.7Z" transform="translate(-618.521 -345.719)" fill="#fff"/>
    <path id="Caminho_173" data-name="Caminho 173" d="M858.9,483c-.157.442-.317.847-.454,1.164H840.3L838.84,483Z" transform="translate(-622.179 -350.454)" fill="#fff"/>
    <path id="Caminho_174" data-name="Caminho 174" d="M864.051,489.77l-.029.064-2.867,1.112H848.665l-1.455-1.164Z" transform="translate(-628.113 -355.254)" fill="#fff"/>
    <path id="Caminho_175" data-name="Caminho 175" d="M770.626,468.95l-3.032,1.176h-5.02l-1.464-1.176Z" transform="translate(-539.589 -332.479)" fill="#925978"/>
    <path id="Caminho_176" data-name="Caminho 176" d="M771.514,475.68l-1.374.533-.661-.533Z" transform="translate(-545.523 -337.25)" fill="#925978"/>
    <path id="Caminho_177" data-name="Caminho 177" d="M875.055,386.24c-1.836.434-3.542.751-3.542.751l-9.653.9-1.33-10.034a14.307,14.307,0,0,1,3.539-3.059c1.595-.8,3.338-2.826,2.357-7.465-.055-.265-.119-.541-.195-.826a10.605,10.605,0,0,1-.291-1.566,8.518,8.518,0,0,1,1.854-6.528c.082-.1.128-.143.128-.143l.611-7.488a2.72,2.72,0,0,1,.32,0c.658.748,1.164,1.251,1.164,1.251l1.481,2.378-.92,9.854,2.5-.242s1.426,19.789,1.9,21.329A2.368,2.368,0,0,1,875.055,386.24Z" transform="translate(-637.557 -256.709)" opacity="0.1"/>
    <path id="Caminho_178" data-name="Caminho 178" d="M884.061,364.041a8.262,8.262,0,0,0-2.218,5.014c-.265,3.166-1.374,3.379-1.374,3.379l-.052,8.981s-.847,2.06.1,3.009-7.919,2.59-7.919,2.59l-9.653.9-1.33-10.034a14.331,14.331,0,0,1,3.536-3.059c1.688-.841,3.539-3.064,2.165-8.291a8.756,8.756,0,0,1,1.563-8.093c.081-.1.128-.143.128-.143l.611-7.488a3.427,3.427,0,0,1,2.663,1.1,6.929,6.929,0,0,0,.684.736,1.5,1.5,0,0,0,2.008.323c.952-.582,5.07-2.992,6.283-1.313S884.061,364.041,884.061,364.041Z" transform="translate(-638.329 -256.727)" fill="#4c4981"/>
    <path id="Caminho_179" data-name="Caminho 179" d="M890.666,352.609l-1,5.113-3.091.681c.082-.1.128-.143.128-.143l.611-7.488a3.427,3.427,0,0,1,2.663,1.1A6.938,6.938,0,0,0,890.666,352.609Z" transform="translate(-656.025 -256.706)" fill="#4c4981"/>
    <path id="Caminho_180" data-name="Caminho 180" d="M890.666,352.609l-1,5.113-3.091.681c.082-.1.128-.143.128-.143l.611-7.488a3.427,3.427,0,0,1,2.663,1.1A6.938,6.938,0,0,0,890.666,352.609Z" transform="translate(-656.025 -256.706)" opacity="0.1"/>
    <path id="Caminho_181" data-name="Caminho 181" d="M957.132,314.532v1.621l-6.81,1.889s-.623-.352-1.592-.815c.736-.262,4.074-1.455,5.8-2.261.637-.291,1.059-.53,1.059-.646,0-.064-.067-.134-.183-.21C956.474,314.369,957.132,314.532,957.132,314.532Z" transform="translate(-700.088 -230.715)" opacity="0.1"/>
    <path id="Caminho_182" data-name="Caminho 182" d="M948.724,318.438s-7.083,6.985-11.827,8.594c0,0-6.6,2.91-8.972,5.614l-4.435-10.931,1.636-1.47a6.326,6.326,0,0,0,4.118.361c1.79-.684,3.8-1.208,3.8-1.208a31.006,31.006,0,0,1,4.8-2.014c1.31-.291.55-1.927-.888-2.666a3.17,3.17,0,0,0-.582-.239,1.72,1.72,0,0,1-2.162.792,5.1,5.1,0,0,1-1.455-1.033h0a16.355,16.355,0,0,1-1.746-2.023s3.987-1.411,5.943-2.311c.637-.291,1.059-.53,1.059-.646,0-.477-3.906-1.478-3.906-1.478s2.983-1.953,4.421-1c0,0-.751.739,0,1.269s9.726,5.724,9.726,5.724S952.528,315.219,948.724,318.438Z" transform="translate(-682.194 -225.332)" fill="#4c4981"/>
    <path id="Caminho_183" data-name="Caminho 183" d="M960.331,322.556l-4.269,1.19a3.172,3.172,0,0,0-.582-.239,1.72,1.72,0,0,1-2.162.792,5.1,5.1,0,0,1-1.455-1.033,16.277,16.277,0,0,1-1.432-1.705s3.984-1.411,5.943-2.311Z" transform="translate(-701.294 -234.359)" opacity="0.1"/>
    <path id="Caminho_184" data-name="Caminho 184" d="M959.226,321.452l-4.543,1.269a1.72,1.72,0,0,1-2.162.792c-1.423-.582-3.2-3.062-3.2-3.062s3.987-1.411,5.943-2.311Z" transform="translate(-700.507 -233.572)" fill="#4c4981"/>
    <path id="Caminho_185" data-name="Caminho 185" d="M959.226,321.042l-4.543,1.269a1.72,1.72,0,0,1-2.162.792c-1.423-.582-3.2-3.062-3.2-3.062s3.987-1.411,5.943-2.311Z" transform="translate(-700.507 -233.282)" fill="#fff" opacity="0.1"/>
    <path id="Caminho_186" data-name="Caminho 186" d="M703.242,604l8.486,4.84s-3.254,2.258-6.237,4.77c-3.091-1.548-6-2.974-8.242-4.3C699.823,608,703.242,604,703.242,604Z" transform="translate(-521.795 -436.241)" opacity="0.1"/>
    <path id="Caminho_187" data-name="Caminho 187" d="M855.844,686.448a26.379,26.379,0,0,1-5.82-.611s-1.455-.128-3.67-.556c-.032-.739-.1-1.58-.212-2.535a51.963,51.963,0,0,1,0-8.236l8,.4,1.345,8.713A5.821,5.821,0,0,1,855.844,686.448Z" transform="translate(-627.231 -486.231)" opacity="0.1"/>
    <path id="Caminho_188" data-name="Caminho 188" d="M743.785,506c-1.266,2.535-4.275,12.988-4.275,12.988a41.49,41.49,0,0,1-2.619,5.465c-1.426,2.375-1.982,7.363-2.773,11.4s.792,3.091.873,5.148-7.6.4-7.6.4-15.445-1.344-21.224-9.895-25.179-14.5-29.565-19.17.661-3.169.1-5.94a7.912,7.912,0,0,1,1.266-5.387s6.653-2.852,7.6-4.365,6.021-5.611,6.021-5.611,4.912-2.931,5.465-3.8,6.4-4.118,8.236-4.831,3.315-3.646,3.315-3.646,1.19,0,2.695-1.9,8.553-4.278,8.553-4.278c13.553,7.444,21.929,5.043,21.929,5.043l.422,1.688C749.885,486.994,745.054,503.469,743.785,506Z" transform="translate(-505.871 -343.067)" fill="#444053"/>
    <path id="Caminho_189" data-name="Caminho 189" d="M852.023,479.311s-10.215,4.912-22.333-6.731c13.541,7.444,21.917,5.043,21.917,5.043Z" transform="translate(-615.692 -343.067)" opacity="0.1"/>
    <path id="Caminho_190" data-name="Caminho 190" d="M815.617,524.828s-11.641,22.572-12.435,23.445S814.828,524.671,815.617,524.828Z" transform="translate(-596.872 -380.109)" opacity="0.1"/>
    <path id="Caminho_191" data-name="Caminho 191" d="M849.874,516.4s-7.919,16.711-7.444,18.771C842.43,535.171,850.113,519.092,849.874,516.4Z" transform="translate(-624.71 -374.134)" opacity="0.1"/>
    <path id="Caminho_192" data-name="Caminho 192" d="M889.681,528.37s-.707,8.862,2.692,13.387Z" transform="translate(-658.181 -382.621)" opacity="0.1"/>
    <path id="Caminho_193" data-name="Caminho 193" d="M903.17,528.37s1.094,7.444,2.13,8.87Z" transform="translate(-667.787 -382.621)" opacity="0.1"/>
    <path id="Caminho_194" data-name="Caminho 194" d="M691.7,488.86l-12.514,6.891h4.91Z" transform="translate(-481.509 -346.594)" opacity="0.1"/>
    <path id="Caminho_195" data-name="Caminho 195" d="M838.172,294.5c-.605.524-1.059,1.3-1.833,1.5a3.2,3.2,0,0,1-1.673-.192,6.02,6.02,0,0,0-4.232-.02c-1.854.893-2.619,3.265-4.473,4.173a3.452,3.452,0,0,1-2.934.058,3.417,3.417,0,0,1-1.781-1.889,4.366,4.366,0,0,1,.972-4.263,9.082,9.082,0,0,1,3.859-2.4c3.76-1.368,7.826-1.6,11.824-1.825a1.746,1.746,0,0,1,.955.125c.661.367,1.985,2.488,1.868,3.283C840.57,294.106,838.172,293.64,838.172,294.5Z" transform="translate(-609.549 -213.362)" opacity="0.1"/>
    <path id="Caminho_196" data-name="Caminho 196" d="M838.172,293.4c-.605.527-1.059,1.3-1.833,1.5a3.139,3.139,0,0,1-1.673-.192,6.02,6.02,0,0,0-4.232-.02c-1.854.893-2.619,3.268-4.473,4.173a3.472,3.472,0,0,1-1.833.343,3.378,3.378,0,0,1-1.1-.291,3.416,3.416,0,0,1-1.781-1.889,4.359,4.359,0,0,1,.972-4.261,9.116,9.116,0,0,1,3.859-2.4c3.76-1.368,7.826-1.6,11.824-1.825a1.746,1.746,0,0,1,.955.128c.661.367,1.985,2.485,1.868,3.28C840.57,293.029,838.172,292.537,838.172,293.4Z" transform="translate(-609.549 -212.577)" fill="#925978"/>
    <path id="Caminho_197" data-name="Caminho 197" d="M658.308,332.02l-.582,5.265-1.772-.774-9.6-4.211s-6.769.634-8-4.715,7.485-1.03,7.959-.672a17.845,17.845,0,0,0,1.545.946l8.891,3.536Z" transform="translate(-479.952 -238.385)" fill="#efb7b9"/>
    <path id="Caminho_198" data-name="Caminho 198" d="M701.484,347.79l-.582,5.265-1.772-.774c.064-2.357.349-4.555.8-5.11Z" transform="translate(-523.127 -254.154)" opacity="0.1"/>
    <path id="Caminho_199" data-name="Caminho 199" d="M836.772,384.076l-.422,10.875-11.024-.844c.151-.85,1.988-11.548-.643-13.783-2.747-2.328-2.8-9.871-2.8-9.871s3.527-5.334,4.226-6.6,5.995-2.884,5.995-2.884a4.412,4.412,0,0,0,.192-1.569,6.055,6.055,0,0,1,.562,1.08,4.349,4.349,0,0,1-2.311,4.627c-.172.111-.352.218-.544.326-.311.172-.649.343-1.019.509l-.166.076c-3.326,1.478-3.8,3.644-3.8,3.644a7.977,7.977,0,0,0-.844,5.785C824.944,378.7,836.772,384.076,836.772,384.076Z" transform="translate(-610.154 -262.825)" opacity="0.1"/>
    <path id="Caminho_200" data-name="Caminho 200" d="M750.6,374.9l-.422,10.875-12.409-.949s-.157-4.074.474-5.82-.367-8.076-.367-8.076c-5.861-4.86-3.751-9.717-3.751-9.717s-15.424-.474-15.733-.9-5.7-2.485-5.7-2.485-5.652-.684-6.5-1.371a6.61,6.61,0,0,0-1-.693,2.658,2.658,0,0,0-.317-.154l.052,3.539a.86.86,0,0,1-.122,0h-.067a4.992,4.992,0,0,1-2.558-.605c-1.371-.792-1.164-11.46,0-11.984a1.414,1.414,0,0,1,.7-.1,7.827,7.827,0,0,1,2.788,1.071l.233.14.084.052s7.18,1.787,8.71,2.843,12.368,1.219,12.368,1.219,4.91.506,5.439-.259,7.654-2.823,8.393-1.871,2.415.582,2.415.582c1.016-1.537,1.915-1.109,2.526-.387a5.583,5.583,0,0,1,.841,1.455c.262,2.116-.471,3.623-2.855,4.947-.358.2-.751.393-1.184.582-3.326,1.478-3.8,3.644-3.8,3.644a7.971,7.971,0,0,0-.847,5.786C738.771,369.522,750.6,374.9,750.6,374.9Z" transform="translate(-524.615 -253.649)" fill="#4c4981"/>
    <path id="Caminho_201" data-name="Caminho 201" d="M703.652,346.44a1.066,1.066,0,0,0-.381.1c-1.164.524-1.371,11.193,0,11.984a4.976,4.976,0,0,0,2.241.643h.067a.847.847,0,0,0,.122,0l-.052-3.539a2.655,2.655,0,0,1,.317.154v-.154a9.138,9.138,0,0,1,.71-7.962Z" transform="translate(-525.388 -253.637)" opacity="0.1"/>
    <path id="Caminho_202" data-name="Caminho 202" d="M704.875,355.643l.052,3.539a4.9,4.9,0,0,1-2.747-.629c-1.371-.792-1.164-11.46,0-11.984.917-.419,2.75.55,3.492.975A9.135,9.135,0,0,0,704.875,355.643Z" transform="translate(-524.615 -253.655)" fill="#4c4981"/>
    <path id="Caminho_203" data-name="Caminho 203" d="M704.875,355.643l.052,3.539a4.9,4.9,0,0,1-2.747-.629c-1.371-.792-1.164-11.46,0-11.984.917-.419,2.75.55,3.492.975A9.135,9.135,0,0,0,704.875,355.643Z" transform="translate(-524.615 -253.655)" fill="#fff" opacity="0.1"/>
    <path id="Caminho_204" data-name="Caminho 204" d="M842.8,364.532l-1.95-1.406,3.964-5a5.581,5.581,0,0,1,.841,1.455C845.917,361.7,845.183,363.2,842.8,364.532Z" transform="translate(-623.604 -261.924)" fill="#4c4981"/>
    <path id="Caminho_205" data-name="Caminho 205" d="M842.8,364.142l-1.95-1.406,3.964-5a5.632,5.632,0,0,1,.841,1.455C845.917,361.308,845.183,362.813,842.8,364.142Z" transform="translate(-623.604 -261.648)" opacity="0.1"/>
    <path id="Caminho_206" data-name="Caminho 206" d="M838.172,299.995c-.605.524-1.062,1.3-1.833,1.5a3.166,3.166,0,0,1-1.673-.189,6,6,0,0,0-4.234-.02c-1.851.893-2.619,3.265-4.473,4.173a3.492,3.492,0,0,1-1.831.34,3.361,3.361,0,0,1-3.085-3.091,3.522,3.522,0,0,0,.2,1.551,3.405,3.405,0,0,0,1.781,1.889,3.36,3.36,0,0,0,1.1.291,3.464,3.464,0,0,0,1.831-.343c1.848-.905,2.619-3.28,4.473-4.173a6.027,6.027,0,0,1,4.234.02,3.14,3.14,0,0,0,1.673.192c.771-.207,1.228-.978,1.833-1.5,0-.873,2.4-.384,2.552-1.441a1.293,1.293,0,0,0-.049-.471C840.305,299.558,838.172,299.183,838.172,299.995Z" transform="translate(-609.55 -219.804)" opacity="0.1"/>
    <path id="Caminho_207" data-name="Caminho 207" d="M866.19,388.513s1.315,2.573.21,3.641c0,0,.873-3.748,1.665-3.783" transform="translate(-641.569 -283.364)" opacity="0.1"/>
    <path id="Caminho_208" data-name="Caminho 208" d="M648.154,325.25s6.9,4.56,2.532,6.007S648.154,325.25,648.154,325.25Z" transform="translate(-486.715 -238.613)" fill="#efb7b9"/>
  </g>
</svg>
